<?xml version="1.0" encoding="utf-8" standalone="no"?>
<!DOCTYPE svg PUBLIC "-//W3C//DTD SVG 1.1//EN"
  "http://www.w3.org/Graphics/SVG/1.1/DTD/svg11.dtd">
<svg xmlns:xlink="http://www.w3.org/1999/xlink" width="504pt" height="288pt" viewBox="0 0 504 288" xmlns="http://www.w3.org/2000/svg" version="1.1">
 <metadata>
  <rdf:RDF xmlns:dc="http://purl.org/dc/elements/1.1/" xmlns:cc="http://creativecommons.org/ns#" xmlns:rdf="http://www.w3.org/1999/02/22-rdf-syntax-ns#">
   <cc:Work>
    <dc:type rdf:resource="http://purl.org/dc/dcmitype/StillImage"/>
    <dc:date>2025-11-05T19:23:24.994896</dc:date>
    <dc:format>image/svg+xml</dc:format>
    <dc:creator>
     <cc:Agent>
      <dc:title>Matplotlib v3.5.2, https://matplotlib.org/</dc:title>
     </cc:Agent>
    </dc:creator>
   </cc:Work>
  </rdf:RDF>
 </metadata>
 <defs>
  <style type="text/css">*{stroke-linejoin: round; stroke-linecap: butt}</style>
 </defs>
 <g id="figure_1">
  <g id="patch_1">
   <path d="M 0 288 
L 504 288 
L 504 0 
L 0 0 
z
" style="fill: #ffffff"/>
  </g>
  <g id="axes_1">
   <g id="patch_2">
    <path d="M 63.2 243.16 
L 319.9 243.16 
L 319.9 28.32 
L 63.2 28.32 
z
" style="fill: #ffffff"/>
   </g>
   <g id="PathCollection_1">
    <defs>
     <path id="C0_0_70fbeba212" d="M 0 3 
C 0.795609 3 1.55874 2.683901 2.12132 2.12132 
C 2.683901 1.55874 3 0.795609 3 -0 
C 3 -0.795609 2.683901 -1.55874 2.12132 -2.12132 
C 1.55874 -2.683901 0.795609 -3 0 -3 
C -0.795609 -3 -1.55874 -2.683901 -2.12132 -2.12132 
C -2.683901 -1.55874 -3 -0.795609 -3 0 
C -3 0.795609 -2.683901 1.55874 -2.12132 2.12132 
C -1.55874 2.683901 -0.795609 3 0 3 
z
"/>
    </defs>
    <g clip-path="url(#pe9cb541893)">
     <use xlink:href="#C0_0_70fbeba212" x="119.253725" y="200.757857" style="fill: #ab1f20; fill-opacity: 0.7; stroke: #ffffff; stroke-opacity: 0.7; stroke-width: 0.48"/>
    </g>
    <g clip-path="url(#pe9cb541893)">
     <use xlink:href="#C0_0_70fbeba212" x="180.981554" y="188.34211" style="fill: #cc660b; fill-opacity: 0.7; stroke: #ffffff; stroke-opacity: 0.7; stroke-width: 0.48"/>
    </g>
    <g clip-path="url(#pe9cb541893)">
     <use xlink:href="#C0_0_70fbeba212" x="279.436998" y="216.069656" style="fill: #ab1f20; fill-opacity: 0.7; stroke: #ffffff; stroke-opacity: 0.7; stroke-width: 0.48"/>
    </g>
    <g clip-path="url(#pe9cb541893)">
     <use xlink:href="#C0_0_70fbeba212" x="289.963181" y="203.924045" style="fill: #cc660b; fill-opacity: 0.7; stroke: #ffffff; stroke-opacity: 0.7; stroke-width: 0.48"/>
    </g>
    <g clip-path="url(#pe9cb541893)">
     <use xlink:href="#C0_0_70fbeba212" x="199.874078" y="208.41203" style="fill: #70453c; fill-opacity: 0.7; stroke: #ffffff; stroke-opacity: 0.7; stroke-width: 0.48"/>
    </g>
    <g clip-path="url(#pe9cb541893)">
     <use xlink:href="#C0_0_70fbeba212" x="227.411764" y="220.523778" style="fill: #195f90; fill-opacity: 0.7; stroke: #ffffff; stroke-opacity: 0.7; stroke-width: 0.48"/>
    </g>
    <g clip-path="url(#pe9cb541893)">
     <use xlink:href="#C0_0_70fbeba212" x="154.641091" y="197.214815" style="fill: #70453c; fill-opacity: 0.7; stroke: #ffffff; stroke-opacity: 0.7; stroke-width: 0.48"/>
    </g>
    <g clip-path="url(#pe9cb541893)">
     <use xlink:href="#C0_0_70fbeba212" x="231.525036" y="215.274516" style="fill: #70453c; fill-opacity: 0.7; stroke: #ffffff; stroke-opacity: 0.7; stroke-width: 0.48"/>
    </g>
    <g clip-path="url(#pe9cb541893)">
     <use xlink:href="#C0_0_70fbeba212" x="203.964303" y="209.322426" style="fill: #195f90; fill-opacity: 0.7; stroke: #ffffff; stroke-opacity: 0.7; stroke-width: 0.48"/>
    </g>
    <g clip-path="url(#pe9cb541893)">
     <use xlink:href="#C0_0_70fbeba212" x="251.526175" y="224.3019" style="fill: #195f90; fill-opacity: 0.7; stroke: #ffffff; stroke-opacity: 0.7; stroke-width: 0.48"/>
    </g>
    <g clip-path="url(#pe9cb541893)">
     <use xlink:href="#C0_0_70fbeba212" x="293.639187" y="214.933299" style="fill: #cc660b; fill-opacity: 0.7; stroke: #ffffff; stroke-opacity: 0.7; stroke-width: 0.48"/>
    </g>
    <g clip-path="url(#pe9cb541893)">
     <use xlink:href="#C0_0_70fbeba212" x="275.884036" y="219.252905" style="fill: #70453c; fill-opacity: 0.7; stroke: #ffffff; stroke-opacity: 0.7; stroke-width: 0.48"/>
    </g>
    <g clip-path="url(#pe9cb541893)">
     <use xlink:href="#C0_0_70fbeba212" x="221.478346" y="216.322742" style="fill: #195f90; fill-opacity: 0.7; stroke: #ffffff; stroke-opacity: 0.7; stroke-width: 0.48"/>
    </g>
    <g clip-path="url(#pe9cb541893)">
     <use xlink:href="#C0_0_70fbeba212" x="146.566934" y="214.491259" style="fill: #195f90; fill-opacity: 0.7; stroke: #ffffff; stroke-opacity: 0.7; stroke-width: 0.48"/>
    </g>
    <g clip-path="url(#pe9cb541893)">
     <use xlink:href="#C0_0_70fbeba212" x="279.66796" y="193.327187" style="fill: #cc660b; fill-opacity: 0.7; stroke: #ffffff; stroke-opacity: 0.7; stroke-width: 0.48"/>
    </g>
    <g clip-path="url(#pe9cb541893)">
     <use xlink:href="#C0_0_70fbeba212" x="74.868182" y="194.093146" style="fill: #70453c; fill-opacity: 0.7; stroke: #ffffff; stroke-opacity: 0.7; stroke-width: 0.48"/>
    </g>
    <g clip-path="url(#pe9cb541893)">
     <use xlink:href="#C0_0_70fbeba212" x="236.850135" y="208.91325" style="fill: #195f90; fill-opacity: 0.7; stroke: #ffffff; stroke-opacity: 0.7; stroke-width: 0.48"/>
    </g>
    <g clip-path="url(#pe9cb541893)">
     <use xlink:href="#C0_0_70fbeba212" x="158.024894" y="85.103073" style="fill: #765297; fill-opacity: 0.7; stroke: #ffffff; stroke-opacity: 0.7; stroke-width: 0.48"/>
    </g>
    <g clip-path="url(#pe9cb541893)">
     <use xlink:href="#C0_0_70fbeba212" x="302.485432" y="187.20646" style="fill: #cc660b; fill-opacity: 0.7; stroke: #ffffff; stroke-opacity: 0.7; stroke-width: 0.48"/>
    </g>
    <g clip-path="url(#pe9cb541893)">
     <use xlink:href="#C0_0_70fbeba212" x="308.231818" y="218.005225" style="fill: #ab1f20; fill-opacity: 0.7; stroke: #ffffff; stroke-opacity: 0.7; stroke-width: 0.48"/>
    </g>
    <g clip-path="url(#pe9cb541893)">
     <use xlink:href="#C0_0_70fbeba212" x="250.988106" y="212.084572" style="fill: #195f90; fill-opacity: 0.7; stroke: #ffffff; stroke-opacity: 0.7; stroke-width: 0.48"/>
    </g>
    <g clip-path="url(#pe9cb541893)">
     <use xlink:href="#C0_0_70fbeba212" x="256.333144" y="226.872797" style="fill: #195f90; fill-opacity: 0.7; stroke: #ffffff; stroke-opacity: 0.7; stroke-width: 0.48"/>
    </g>
    <g clip-path="url(#pe9cb541893)">
     <use xlink:href="#C0_0_70fbeba212" x="178.33244" y="218.07738" style="fill: #195f90; fill-opacity: 0.7; stroke: #ffffff; stroke-opacity: 0.7; stroke-width: 0.48"/>
    </g>
    <g clip-path="url(#pe9cb541893)">
     <use xlink:href="#C0_0_70fbeba212" x="117.795238" y="195.159748" style="fill: #195f90; fill-opacity: 0.7; stroke: #ffffff; stroke-opacity: 0.7; stroke-width: 0.48"/>
    </g>
    <g clip-path="url(#pe9cb541893)">
     <use xlink:href="#C0_0_70fbeba212" x="270.287336" y="215.542571" style="fill: #ab1f20; fill-opacity: 0.7; stroke: #ffffff; stroke-opacity: 0.7; stroke-width: 0.48"/>
    </g>
    <g clip-path="url(#pe9cb541893)">
     <use xlink:href="#C0_0_70fbeba212" x="268.115209" y="218.305411" style="fill: #238023; fill-opacity: 0.7; stroke: #ffffff; stroke-opacity: 0.7; stroke-width: 0.48"/>
    </g>
    <g clip-path="url(#pe9cb541893)">
     <use xlink:href="#C0_0_70fbeba212" x="255.235233" y="213.617459" style="fill: #195f90; fill-opacity: 0.7; stroke: #ffffff; stroke-opacity: 0.7; stroke-width: 0.48"/>
    </g>
    <g clip-path="url(#pe9cb541893)">
     <use xlink:href="#C0_0_70fbeba212" x="290.590513" y="195.42118" style="fill: #ab1f20; fill-opacity: 0.7; stroke: #ffffff; stroke-opacity: 0.7; stroke-width: 0.48"/>
    </g>
    <g clip-path="url(#pe9cb541893)">
     <use xlink:href="#C0_0_70fbeba212" x="230.898964" y="214.456064" style="fill: #cc660b; fill-opacity: 0.7; stroke: #ffffff; stroke-opacity: 0.7; stroke-width: 0.48"/>
    </g>
    <g clip-path="url(#pe9cb541893)">
     <use xlink:href="#C0_0_70fbeba212" x="218.923404" y="201.293567" style="fill: #195f90; fill-opacity: 0.7; stroke: #ffffff; stroke-opacity: 0.7; stroke-width: 0.48"/>
    </g>
    <g clip-path="url(#pe9cb541893)">
     <use xlink:href="#C0_0_70fbeba212" x="287.301065" y="195.685237" style="fill: #cc660b; fill-opacity: 0.7; stroke: #ffffff; stroke-opacity: 0.7; stroke-width: 0.48"/>
    </g>
    <g clip-path="url(#pe9cb541893)">
     <use xlink:href="#C0_0_70fbeba212" x="274.467908" y="210.77735" style="fill: #ab1f20; fill-opacity: 0.7; stroke: #ffffff; stroke-opacity: 0.7; stroke-width: 0.48"/>
    </g>
    <g clip-path="url(#pe9cb541893)">
     <use xlink:href="#C0_0_70fbeba212" x="247.48103" y="195.703133" style="fill: #195f90; fill-opacity: 0.7; stroke: #ffffff; stroke-opacity: 0.7; stroke-width: 0.48"/>
    </g>
    <g clip-path="url(#pe9cb541893)">
     <use xlink:href="#C0_0_70fbeba212" x="262.337105" y="200.149738" style="fill: #195f90; fill-opacity: 0.7; stroke: #ffffff; stroke-opacity: 0.7; stroke-width: 0.48"/>
    </g>
    <g clip-path="url(#pe9cb541893)">
     <use xlink:href="#C0_0_70fbeba212" x="253.213015" y="203.964672" style="fill: #195f90; fill-opacity: 0.7; stroke: #ffffff; stroke-opacity: 0.7; stroke-width: 0.48"/>
    </g>
    <g clip-path="url(#pe9cb541893)">
     <use xlink:href="#C0_0_70fbeba212" x="216.505013" y="184.729344" style="fill: #195f90; fill-opacity: 0.7; stroke: #ffffff; stroke-opacity: 0.7; stroke-width: 0.48"/>
    </g>
    <g clip-path="url(#pe9cb541893)">
     <use xlink:href="#C0_0_70fbeba212" x="260.778074" y="178.338092" style="fill: #195f90; fill-opacity: 0.7; stroke: #ffffff; stroke-opacity: 0.7; stroke-width: 0.48"/>
    </g>
    <g clip-path="url(#pe9cb541893)">
     <use xlink:href="#C0_0_70fbeba212" x="277.544215" y="165.670877" style="fill: #cc660b; fill-opacity: 0.7; stroke: #ffffff; stroke-opacity: 0.7; stroke-width: 0.48"/>
    </g>
    <g clip-path="url(#pe9cb541893)">
     <use xlink:href="#C0_0_70fbeba212" x="264.945556" y="178.62027" style="fill: #195f90; fill-opacity: 0.7; stroke: #ffffff; stroke-opacity: 0.7; stroke-width: 0.48"/>
    </g>
    <g clip-path="url(#pe9cb541893)">
     <use xlink:href="#C0_0_70fbeba212" x="261.020108" y="171.375935" style="fill: #cc660b; fill-opacity: 0.7; stroke: #ffffff; stroke-opacity: 0.7; stroke-width: 0.48"/>
    </g>
    <g clip-path="url(#pe9cb541893)">
     <use xlink:href="#C0_0_70fbeba212" x="261.696897" y="144.060077" style="fill: #195f90; fill-opacity: 0.7; stroke: #ffffff; stroke-opacity: 0.7; stroke-width: 0.48"/>
    </g>
    <g clip-path="url(#pe9cb541893)">
     <use xlink:href="#C0_0_70fbeba212" x="245.816141" y="77.378971" style="fill: #195f90; fill-opacity: 0.7; stroke: #ffffff; stroke-opacity: 0.7; stroke-width: 0.48"/>
    </g>
    <g clip-path="url(#pe9cb541893)">
     <use xlink:href="#C0_0_70fbeba212" x="220.5162" y="54.205141" style="fill: #195f90; fill-opacity: 0.7; stroke: #ffffff; stroke-opacity: 0.7; stroke-width: 0.48"/>
    </g>
    <g clip-path="url(#pe9cb541893)">
     <use xlink:href="#C0_0_70fbeba212" x="220.289891" y="44.532327" style="fill: #195f90; fill-opacity: 0.7; stroke: #ffffff; stroke-opacity: 0.7; stroke-width: 0.48"/>
    </g>
   </g>
   <g id="PathCollection_2"/>
   <g id="PathCollection_3"/>
   <g id="PathCollection_4"/>
   <g id="PathCollection_5"/>
   <g id="PathCollection_6"/>
   <g id="PathCollection_7"/>
   <g id="matplotlib.axis_1">
    <g id="xtick_1">
     <g id="line2d_1">
      <defs>
       <path id="m8a99780d99" d="M 0 0 
L 0 3.5 
" style="stroke: #000000; stroke-width: 0.8"/>
      </defs>
      <g>
       <use xlink:href="#m8a99780d99" x="89.827914" y="243.16" style="stroke: #000000; stroke-width: 0.8"/>
      </g>
     </g>
     <g id="text_1">
      <text style="font: 10px 'sans-serif'; text-anchor: middle" x="89.827914" y="257.758438" transform="rotate(-0, 89.827914, 257.758438)">100</text>
     </g>
    </g>
    <g id="xtick_2">
     <g id="line2d_2">
      <g>
       <use xlink:href="#m8a99780d99" x="141.507394" y="243.16" style="stroke: #000000; stroke-width: 0.8"/>
      </g>
     </g>
     <g id="text_2">
      <text style="font: 10px 'sans-serif'; text-anchor: middle" x="141.507394" y="257.758438" transform="rotate(-0, 141.507394, 257.758438)">150</text>
     </g>
    </g>
    <g id="xtick_3">
     <g id="line2d_3">
      <g>
       <use xlink:href="#m8a99780d99" x="193.186875" y="243.16" style="stroke: #000000; stroke-width: 0.8"/>
      </g>
     </g>
     <g id="text_3">
      <text style="font: 10px 'sans-serif'; text-anchor: middle" x="193.186875" y="257.758438" transform="rotate(-0, 193.186875, 257.758438)">200</text>
     </g>
    </g>
    <g id="xtick_4">
     <g id="line2d_4">
      <g>
       <use xlink:href="#m8a99780d99" x="244.866356" y="243.16" style="stroke: #000000; stroke-width: 0.8"/>
      </g>
     </g>
     <g id="text_4">
      <text style="font: 10px 'sans-serif'; text-anchor: middle" x="244.866356" y="257.758438" transform="rotate(-0, 244.866356, 257.758438)">250</text>
     </g>
    </g>
    <g id="xtick_5">
     <g id="line2d_5">
      <g>
       <use xlink:href="#m8a99780d99" x="296.545836" y="243.16" style="stroke: #000000; stroke-width: 0.8"/>
      </g>
     </g>
     <g id="text_5">
      <text style="font: 10px 'sans-serif'; text-anchor: middle" x="296.545836" y="257.758438" transform="rotate(-0, 296.545836, 257.758438)">300</text>
     </g>
    </g>
    <g id="text_6">
     <text style="font: 12px 'sans-serif'; text-anchor: middle" x="191.55" y="272.95625" transform="rotate(-0, 191.55, 272.95625)">Divergence</text>
    </g>
   </g>
   <g id="matplotlib.axis_2">
    <g id="ytick_1">
     <g id="line2d_6">
      <defs>
       <path id="md85bdb811d" d="M 0 0 
L -3.5 0 
" style="stroke: #000000; stroke-width: 0.8"/>
      </defs>
      <g>
       <use xlink:href="#md85bdb811d" x="63.2" y="243.16" style="stroke: #000000; stroke-width: 0.8"/>
      </g>
     </g>
     <g id="text_7">
      <text style="font: 10px 'sans-serif'; text-anchor: end" x="56.2" y="246.959219" transform="rotate(-0, 56.2, 246.959219)">0.000</text>
     </g>
    </g>
    <g id="ytick_2">
     <g id="line2d_7">
      <g>
       <use xlink:href="#md85bdb811d" x="63.2" y="219.288889" style="stroke: #000000; stroke-width: 0.8"/>
      </g>
     </g>
     <g id="text_8">
      <text style="font: 10px 'sans-serif'; text-anchor: end" x="56.2" y="223.088108" transform="rotate(-0, 56.2, 223.088108)">0.025</text>
     </g>
    </g>
    <g id="ytick_3">
     <g id="line2d_8">
      <g>
       <use xlink:href="#md85bdb811d" x="63.2" y="195.417778" style="stroke: #000000; stroke-width: 0.8"/>
      </g>
     </g>
     <g id="text_9">
      <text style="font: 10px 'sans-serif'; text-anchor: end" x="56.2" y="199.216997" transform="rotate(-0, 56.2, 199.216997)">0.050</text>
     </g>
    </g>
    <g id="ytick_4">
     <g id="line2d_9">
      <g>
       <use xlink:href="#md85bdb811d" x="63.2" y="171.546667" style="stroke: #000000; stroke-width: 0.8"/>
      </g>
     </g>
     <g id="text_10">
      <text style="font: 10px 'sans-serif'; text-anchor: end" x="56.2" y="175.345885" transform="rotate(-0, 56.2, 175.345885)">0.075</text>
     </g>
    </g>
    <g id="ytick_5">
     <g id="line2d_10">
      <g>
       <use xlink:href="#md85bdb811d" x="63.2" y="147.675556" style="stroke: #000000; stroke-width: 0.8"/>
      </g>
     </g>
     <g id="text_11">
      <text style="font: 10px 'sans-serif'; text-anchor: end" x="56.2" y="151.474774" transform="rotate(-0, 56.2, 151.474774)">0.100</text>
     </g>
    </g>
    <g id="ytick_6">
     <g id="line2d_11">
      <g>
       <use xlink:href="#md85bdb811d" x="63.2" y="123.804444" style="stroke: #000000; stroke-width: 0.8"/>
      </g>
     </g>
     <g id="text_12">
      <text style="font: 10px 'sans-serif'; text-anchor: end" x="56.2" y="127.603663" transform="rotate(-0, 56.2, 127.603663)">0.125</text>
     </g>
    </g>
    <g id="ytick_7">
     <g id="line2d_12">
      <g>
       <use xlink:href="#md85bdb811d" x="63.2" y="99.933333" style="stroke: #000000; stroke-width: 0.8"/>
      </g>
     </g>
     <g id="text_13">
      <text style="font: 10px 'sans-serif'; text-anchor: end" x="56.2" y="103.732552" transform="rotate(-0, 56.2, 103.732552)">0.150</text>
     </g>
    </g>
    <g id="ytick_8">
     <g id="line2d_13">
      <g>
       <use xlink:href="#md85bdb811d" x="63.2" y="76.062222" style="stroke: #000000; stroke-width: 0.8"/>
      </g>
     </g>
     <g id="text_14">
      <text style="font: 10px 'sans-serif'; text-anchor: end" x="56.2" y="79.861441" transform="rotate(-0, 56.2, 79.861441)">0.175</text>
     </g>
    </g>
    <g id="ytick_9">
     <g id="line2d_14">
      <g>
       <use xlink:href="#md85bdb811d" x="63.2" y="52.191111" style="stroke: #000000; stroke-width: 0.8"/>
      </g>
     </g>
     <g id="text_15">
      <text style="font: 10px 'sans-serif'; text-anchor: end" x="56.2" y="55.99033" transform="rotate(-0, 56.2, 55.99033)">0.200</text>
     </g>
    </g>
    <g id="ytick_10">
     <g id="line2d_15">
      <g>
       <use xlink:href="#md85bdb811d" x="63.2" y="28.32" style="stroke: #000000; stroke-width: 0.8"/>
      </g>
     </g>
     <g id="text_16">
      <text style="font: 10px 'sans-serif'; text-anchor: end" x="56.2" y="32.119219" transform="rotate(-0, 56.2, 32.119219)">0.225</text>
     </g>
    </g>
    <g id="text_17">
     <text style="font: 12px 'sans-serif'; text-anchor: middle" x="21.07625" y="135.74" transform="rotate(-90, 21.07625, 135.74)">Average Absolute Correlation</text>
    </g>
   </g>
   <g id="line2d_16">
    <path d="M 74.868182 180.791097 
L 141.711032 180.931126 
L 168.682709 181.187846 
L 186.272933 181.554153 
L 200.345112 182.06686 
L 210.899246 182.656865 
L 220.280699 183.395023 
L 228.48947 184.261757 
L 235.52556 185.213105 
L 242.561649 186.399439 
L 248.425057 187.598926 
L 254.288465 189.017196 
L 260.151873 190.677813 
L 266.015281 192.600042 
L 271.878689 194.795809 
L 277.742097 197.266401 
L 283.605505 199.999367 
L 289.468913 202.966312 
L 296.505002 206.771135 
L 308.231818 213.419775 
L 308.231818 213.419775 
" clip-path="url(#pe9cb541893)" style="fill: none; stroke-dasharray: 9.25,4; stroke-dashoffset: 0; stroke: #000000; stroke-width: 2.5"/>
   </g>
   <g id="patch_3">
    <path d="M 63.2 243.16 
L 63.2 28.32 
" style="fill: none; stroke: #000000; stroke-width: 0.8; stroke-linejoin: miter; stroke-linecap: square"/>
   </g>
   <g id="patch_4">
    <path d="M 319.9 243.16 
L 319.9 28.32 
" style="fill: none; stroke: #000000; stroke-width: 0.8; stroke-linejoin: miter; stroke-linecap: square"/>
   </g>
   <g id="patch_5">
    <path d="M 63.2 243.16 
L 319.9 243.16 
" style="fill: none; stroke: #000000; stroke-width: 0.8; stroke-linejoin: miter; stroke-linecap: square"/>
   </g>
   <g id="patch_6">
    <path d="M 63.2 28.32 
L 319.9 28.32 
" style="fill: none; stroke: #000000; stroke-width: 0.8; stroke-linejoin: miter; stroke-linecap: square"/>
   </g>
   <g id="text_18">
    <g id="patch_7">
     <path d="M 76.035 76.157625 
L 281.335 76.157625 
Q 286.335 76.157625 286.335 71.157625 
L 286.335 39.041687 
Q 286.335 34.041687 281.335 34.041687 
L 76.035 34.041687 
Q 71.035 34.041687 71.035 39.041687 
L 71.035 71.157625 
Q 71.035 76.157625 76.035 76.157625 
z
" style="fill: #ffffff; opacity: 0.7; stroke: #000000; stroke-linejoin: miter"/>
    </g>
    <!-- y = 0.07 / (1 + exp(- -0.04 $\cdot$ (x - 308.85))) -->
    <g transform="translate(76.035 46.662)">
     <text>
      <tspan style="font: 10px 'DejaVu Sans'" x="0 5.917969 9.09668 17.475586 20.654297 27.016602 30.195312 36.557617 42.919922 46.098633 49.467773 52.646484 56.547852 62.910156 66.088867 74.467773 77.646484 83.798828 89.716797 96.064453 99.96582 103.574219 107.182617 113.544922 116.723633 123.085938 129.448242 132.626953 135.805664 138.984375 142.885742 148.803711 151.982422 155.59082 158.769531 165.131836 171.494141 177.856445 180.785156 187.147461 193.509766 197.411133 201.3125" y="-0.40625">y = 0.07 / (1 + exp(--0.04 ⋅ (x - 308.85)))</tspan>
     </text>
    </g>
    <!-- $R^2$ = 0.036 -->
    <g transform="translate(76.035 57.880125)">
     <text>
      <tspan style="font: oblique 10px 'DejaVu Sans'" x="0" y="-0.9765625">R</tspan>
      <tspan style="font: 7px 'DejaVu Sans'" x="7.650794" y="-4.8046875">2</tspan>
      <tspan style="font: 10px 'DejaVu Sans'" x="12.377845 15.556556 23.935462 27.114173 33.476478 36.655189 43.017493 49.379798" y="-0.9765625"> = 0.036</tspan>
     </text>
    </g>
    <text style="font: 10px 'sans-serif'" transform="translate(76.035 69.077938)">p = 0.218</text>
   </g>
   <g id="text_19">
    <text style="font: 16px 'sans-serif'; text-anchor: middle" x="191.55" y="22.32" transform="rotate(-0, 191.55, 22.32)">Sigmoidal Fit of Correlation vs. Divergence</text>
   </g>
   <g id="legend_1">
    <g id="patch_8">
     <path d="M 326.9 188.613438 
L 415.609375 188.613438 
Q 417.609375 188.613438 417.609375 186.613438 
L 417.609375 84.866563 
Q 417.609375 82.866563 415.609375 82.866563 
L 326.9 82.866563 
Q 324.9 82.866563 324.9 84.866563 
L 324.9 186.613438 
Q 324.9 188.613438 326.9 188.613438 
z
" style="fill: #ffffff; opacity: 0.8; stroke: #cccccc; stroke-linejoin: miter"/>
    </g>
    <g id="PathCollection_8">
     <defs>
      <path id="m4716a398a5" d="M 0 3 
C 0.795609 3 1.55874 2.683901 2.12132 2.12132 
C 2.683901 1.55874 3 0.795609 3 0 
C 3 -0.795609 2.683901 -1.55874 2.12132 -2.12132 
C 1.55874 -2.683901 0.795609 -3 0 -3 
C -0.795609 -3 -1.55874 -2.683901 -2.12132 -2.12132 
C -2.683901 -1.55874 -3 -0.795609 -3 0 
C -3 0.795609 -2.683901 1.55874 -2.12132 2.12132 
C -1.55874 2.683901 -0.795609 3 0 3 
z
" style="stroke: #ab1f20"/>
     </defs>
     <g>
      <use xlink:href="#m4716a398a5" x="338.9" y="91.84" style="fill: #ab1f20; stroke: #ab1f20"/>
     </g>
    </g>
    <g id="text_20">
     <text style="font: 10px 'sans-serif'; text-anchor: start" x="356.9" y="94.465" transform="rotate(-0, 356.9, 94.465)">SINE</text>
    </g>
    <g id="PathCollection_9">
     <defs>
      <path id="m15796d5b07" d="M 0 3 
C 0.795609 3 1.55874 2.683901 2.12132 2.12132 
C 2.683901 1.55874 3 0.795609 3 0 
C 3 -0.795609 2.683901 -1.55874 2.12132 -2.12132 
C 1.55874 -2.683901 0.795609 -3 0 -3 
C -0.795609 -3 -1.55874 -2.683901 -2.12132 -2.12132 
C -2.683901 -1.55874 -3 -0.795609 -3 0 
C -3 0.795609 -2.683901 1.55874 -2.12132 2.12132 
C -1.55874 2.683901 -0.795609 3 0 3 
z
" style="stroke: #cc660b"/>
     </defs>
     <g>
      <use xlink:href="#m15796d5b07" x="338.9" y="106.518125" style="fill: #cc660b; stroke: #cc660b"/>
     </g>
    </g>
    <g id="text_21">
     <text style="font: 10px 'sans-serif'; text-anchor: start" x="356.9" y="109.143125" transform="rotate(-0, 356.9, 109.143125)">LINE</text>
    </g>
    <g id="PathCollection_10">
     <defs>
      <path id="m487db4323b" d="M 0 3 
C 0.795609 3 1.55874 2.683901 2.12132 2.12132 
C 2.683901 1.55874 3 0.795609 3 0 
C 3 -0.795609 2.683901 -1.55874 2.12132 -2.12132 
C 1.55874 -2.683901 0.795609 -3 0 -3 
C -0.795609 -3 -1.55874 -2.683901 -2.12132 -2.12132 
C -2.683901 -1.55874 -3 -0.795609 -3 0 
C -3 0.795609 -2.683901 1.55874 -2.12132 2.12132 
C -1.55874 2.683901 -0.795609 3 0 3 
z
" style="stroke: #70453c"/>
     </defs>
     <g>
      <use xlink:href="#m487db4323b" x="338.9" y="121.19625" style="fill: #70453c; stroke: #70453c"/>
     </g>
    </g>
    <g id="text_22">
     <text style="font: 10px 'sans-serif'; text-anchor: start" x="356.9" y="123.82125" transform="rotate(-0, 356.9, 123.82125)">LTR</text>
    </g>
    <g id="PathCollection_11">
     <defs>
      <path id="m1112aabbd6" d="M 0 3 
C 0.795609 3 1.55874 2.683901 2.12132 2.12132 
C 2.683901 1.55874 3 0.795609 3 0 
C 3 -0.795609 2.683901 -1.55874 2.12132 -2.12132 
C 1.55874 -2.683901 0.795609 -3 0 -3 
C -0.795609 -3 -1.55874 -2.683901 -2.12132 -2.12132 
C -2.683901 -1.55874 -3 -0.795609 -3 0 
C -3 0.795609 -2.683901 1.55874 -2.12132 2.12132 
C -1.55874 2.683901 -0.795609 3 0 3 
z
" style="stroke: #195f90"/>
     </defs>
     <g>
      <use xlink:href="#m1112aabbd6" x="338.9" y="135.874375" style="fill: #195f90; stroke: #195f90"/>
     </g>
    </g>
    <g id="text_23">
     <text style="font: 10px 'sans-serif'; text-anchor: start" x="356.9" y="138.499375" transform="rotate(-0, 356.9, 138.499375)">DNA</text>
    </g>
    <g id="PathCollection_12">
     <defs>
      <path id="m0037b53444" d="M 0 3 
C 0.795609 3 1.55874 2.683901 2.12132 2.12132 
C 2.683901 1.55874 3 0.795609 3 0 
C 3 -0.795609 2.683901 -1.55874 2.12132 -2.12132 
C 1.55874 -2.683901 0.795609 -3 0 -3 
C -0.795609 -3 -1.55874 -2.683901 -2.12132 -2.12132 
C -2.683901 -1.55874 -3 -0.795609 -3 0 
C -3 0.795609 -2.683901 1.55874 -2.12132 2.12132 
C -1.55874 2.683901 -0.795609 3 0 3 
z
" style="stroke: #765297"/>
     </defs>
     <g>
      <use xlink:href="#m0037b53444" x="338.9" y="150.5525" style="fill: #765297; stroke: #765297"/>
     </g>
    </g>
    <g id="text_24">
     <text style="font: 10px 'sans-serif'; text-anchor: start" x="356.9" y="153.1775" transform="rotate(-0, 356.9, 153.1775)">Retroposon</text>
    </g>
    <g id="PathCollection_13">
     <defs>
      <path id="me3f39a59d7" d="M 0 3 
C 0.795609 3 1.55874 2.683901 2.12132 2.12132 
C 2.683901 1.55874 3 0.795609 3 0 
C 3 -0.795609 2.683901 -1.55874 2.12132 -2.12132 
C 1.55874 -2.683901 0.795609 -3 0 -3 
C -0.795609 -3 -1.55874 -2.683901 -2.12132 -2.12132 
C -2.683901 -1.55874 -3 -0.795609 -3 0 
C -3 0.795609 -2.683901 1.55874 -2.12132 2.12132 
C -1.55874 2.683901 -0.795609 3 0 3 
z
" style="stroke: #238023"/>
     </defs>
     <g>
      <use xlink:href="#me3f39a59d7" x="338.9" y="165.230625" style="fill: #238023; stroke: #238023"/>
     </g>
    </g>
    <g id="text_25">
     <text style="font: 10px 'sans-serif'; text-anchor: start" x="356.9" y="167.855625" transform="rotate(-0, 356.9, 167.855625)">RC</text>
    </g>
    <g id="line2d_17">
     <path d="M 328.9 179.03375 
L 338.9 179.03375 
L 348.9 179.03375 
" style="fill: none; stroke-dasharray: 9.25,4; stroke-dashoffset: 0; stroke: #000000; stroke-width: 2.5"/>
    </g>
    <g id="text_26">
     <text style="font: 10px 'sans-serif'; text-anchor: start" x="356.9" y="182.53375" transform="rotate(-0, 356.9, 182.53375)">Sigmoid Fit</text>
    </g>
   </g>
  </g>
 </g>
 <defs>
  <clipPath id="pe9cb541893">
   <rect x="63.2" y="28.32" width="256.7" height="214.84"/>
  </clipPath>
 </defs>
</svg>
