<?xml version="1.0" encoding="utf-8" standalone="no"?>
<!DOCTYPE svg PUBLIC "-//W3C//DTD SVG 1.1//EN"
  "http://www.w3.org/Graphics/SVG/1.1/DTD/svg11.dtd">
<svg xmlns:xlink="http://www.w3.org/1999/xlink" width="504pt" height="288pt" viewBox="0 0 504 288" xmlns="http://www.w3.org/2000/svg" version="1.1">
 <metadata>
  <rdf:RDF xmlns:dc="http://purl.org/dc/elements/1.1/" xmlns:cc="http://creativecommons.org/ns#" xmlns:rdf="http://www.w3.org/1999/02/22-rdf-syntax-ns#">
   <cc:Work>
    <dc:type rdf:resource="http://purl.org/dc/dcmitype/StillImage"/>
    <dc:date>2025-11-09T18:58:43.425949</dc:date>
    <dc:format>image/svg+xml</dc:format>
    <dc:creator>
     <cc:Agent>
      <dc:title>Matplotlib v3.8.4, https://matplotlib.org/</dc:title>
     </cc:Agent>
    </dc:creator>
   </cc:Work>
  </rdf:RDF>
 </metadata>
 <defs>
  <style type="text/css">*{stroke-linejoin: round; stroke-linecap: butt}</style>
 </defs>
 <g id="figure_1">
  <g id="patch_1">
   <path d="M 0 288 
L 504 288 
L 504 0 
L 0 0 
z
" style="fill: #ffffff"/>
  </g>
  <g id="axes_1">
   <g id="patch_2">
    <path d="M 63.2 243.16 
L 319.9 243.16 
L 319.9 28.32 
L 63.2 28.32 
z
" style="fill: #ffffff"/>
   </g>
   <g id="PathCollection_1">
    <defs>
     <path id="C0_0_f9675357be" d="M 0 3 
C 0.795609 3 1.55874 2.683901 2.12132 2.12132 
C 2.683901 1.55874 3 0.795609 3 -0 
C 3 -0.795609 2.683901 -1.55874 2.12132 -2.12132 
C 1.55874 -2.683901 0.795609 -3 0 -3 
C -0.795609 -3 -1.55874 -2.683901 -2.12132 -2.12132 
C -2.683901 -1.55874 -3 -0.795609 -3 0 
C -3 0.795609 -2.683901 1.55874 -2.12132 2.12132 
C -1.55874 2.683901 -0.795609 3 0 3 
z
"/>
    </defs>
    <g clip-path="url(#p1f48b0718b)">
     <use xlink:href="#C0_0_f9675357be" x="174.305281" y="223.690406" style="fill: #ab1f20; fill-opacity: 0.7; stroke: #ffffff; stroke-opacity: 0.7; stroke-width: 0.48"/>
    </g>
    <g clip-path="url(#p1f48b0718b)">
     <use xlink:href="#C0_0_f9675357be" x="308.231818" y="242.397559" style="fill: #ab1f20; fill-opacity: 0.7; stroke: #ffffff; stroke-opacity: 0.7; stroke-width: 0.48"/>
    </g>
    <g clip-path="url(#p1f48b0718b)">
     <use xlink:href="#C0_0_f9675357be" x="241.576134" y="239.419776" style="fill: #cc660b; fill-opacity: 0.7; stroke: #ffffff; stroke-opacity: 0.7; stroke-width: 0.48"/>
    </g>
    <g clip-path="url(#p1f48b0718b)">
     <use xlink:href="#C0_0_f9675357be" x="134.487222" y="199.3865" style="fill: #195f90; fill-opacity: 0.7; stroke: #ffffff; stroke-opacity: 0.7; stroke-width: 0.48"/>
    </g>
    <g clip-path="url(#p1f48b0718b)">
     <use xlink:href="#C0_0_f9675357be" x="119.536294" y="181.991911" style="fill: #195f90; fill-opacity: 0.7; stroke: #ffffff; stroke-opacity: 0.7; stroke-width: 0.48"/>
    </g>
    <g clip-path="url(#p1f48b0718b)">
     <use xlink:href="#C0_0_f9675357be" x="145.02671" y="208.244551" style="fill: #cc660b; fill-opacity: 0.7; stroke: #ffffff; stroke-opacity: 0.7; stroke-width: 0.48"/>
    </g>
    <g clip-path="url(#p1f48b0718b)">
     <use xlink:href="#C0_0_f9675357be" x="259.75893" y="240.972461" style="fill: #70453c; fill-opacity: 0.7; stroke: #ffffff; stroke-opacity: 0.7; stroke-width: 0.48"/>
    </g>
    <g clip-path="url(#p1f48b0718b)">
     <use xlink:href="#C0_0_f9675357be" x="202.966335" y="235.162519" style="fill: #70453c; fill-opacity: 0.7; stroke: #ffffff; stroke-opacity: 0.7; stroke-width: 0.48"/>
    </g>
    <g clip-path="url(#p1f48b0718b)">
     <use xlink:href="#C0_0_f9675357be" x="259.684546" y="241.174648" style="fill: #70453c; fill-opacity: 0.7; stroke: #ffffff; stroke-opacity: 0.7; stroke-width: 0.48"/>
    </g>
    <g clip-path="url(#p1f48b0718b)">
     <use xlink:href="#C0_0_f9675357be" x="276.642065" y="241.361186" style="fill: #70453c; fill-opacity: 0.7; stroke: #ffffff; stroke-opacity: 0.7; stroke-width: 0.48"/>
    </g>
    <g clip-path="url(#p1f48b0718b)">
     <use xlink:href="#C0_0_f9675357be" x="220.87347" y="237.115625" style="fill: #70453c; fill-opacity: 0.7; stroke: #ffffff; stroke-opacity: 0.7; stroke-width: 0.48"/>
    </g>
    <g clip-path="url(#p1f48b0718b)">
     <use xlink:href="#C0_0_f9675357be" x="172.678915" y="225.45815" style="fill: #238023; fill-opacity: 0.7; stroke: #ffffff; stroke-opacity: 0.7; stroke-width: 0.48"/>
    </g>
    <g clip-path="url(#p1f48b0718b)">
     <use xlink:href="#C0_0_f9675357be" x="116.843197" y="178.331897" style="fill: #cc660b; fill-opacity: 0.7; stroke: #ffffff; stroke-opacity: 0.7; stroke-width: 0.48"/>
    </g>
    <g clip-path="url(#p1f48b0718b)">
     <use xlink:href="#C0_0_f9675357be" x="140.40929" y="209.422932" style="fill: #195f90; fill-opacity: 0.7; stroke: #ffffff; stroke-opacity: 0.7; stroke-width: 0.48"/>
    </g>
    <g clip-path="url(#p1f48b0718b)">
     <use xlink:href="#C0_0_f9675357be" x="293.019955" y="242.072032" style="fill: #cc660b; fill-opacity: 0.7; stroke: #ffffff; stroke-opacity: 0.7; stroke-width: 0.48"/>
    </g>
    <g clip-path="url(#p1f48b0718b)">
     <use xlink:href="#C0_0_f9675357be" x="119.676276" y="173.233936" style="fill: #cc660b; fill-opacity: 0.7; stroke: #ffffff; stroke-opacity: 0.7; stroke-width: 0.48"/>
    </g>
    <g clip-path="url(#p1f48b0718b)">
     <use xlink:href="#C0_0_f9675357be" x="284.264668" y="241.584733" style="fill: #cc660b; fill-opacity: 0.7; stroke: #ffffff; stroke-opacity: 0.7; stroke-width: 0.48"/>
    </g>
    <g clip-path="url(#p1f48b0718b)">
     <use xlink:href="#C0_0_f9675357be" x="291.819902" y="241.96358" style="fill: #ab1f20; fill-opacity: 0.7; stroke: #ffffff; stroke-opacity: 0.7; stroke-width: 0.48"/>
    </g>
    <g clip-path="url(#p1f48b0718b)">
     <use xlink:href="#C0_0_f9675357be" x="178.45874" y="228.965434" style="fill: #195f90; fill-opacity: 0.7; stroke: #ffffff; stroke-opacity: 0.7; stroke-width: 0.48"/>
    </g>
    <g clip-path="url(#p1f48b0718b)">
     <use xlink:href="#C0_0_f9675357be" x="128.723763" y="198.255594" style="fill: #195f90; fill-opacity: 0.7; stroke: #ffffff; stroke-opacity: 0.7; stroke-width: 0.48"/>
    </g>
    <g clip-path="url(#p1f48b0718b)">
     <use xlink:href="#C0_0_f9675357be" x="140.304738" y="209.540079" style="fill: #195f90; fill-opacity: 0.7; stroke: #ffffff; stroke-opacity: 0.7; stroke-width: 0.48"/>
    </g>
    <g clip-path="url(#p1f48b0718b)">
     <use xlink:href="#C0_0_f9675357be" x="154.241962" y="213.31323" style="fill: #cc660b; fill-opacity: 0.7; stroke: #ffffff; stroke-opacity: 0.7; stroke-width: 0.48"/>
    </g>
    <g clip-path="url(#p1f48b0718b)">
     <use xlink:href="#C0_0_f9675357be" x="175.688395" y="228.685052" style="fill: #195f90; fill-opacity: 0.7; stroke: #ffffff; stroke-opacity: 0.7; stroke-width: 0.48"/>
    </g>
    <g clip-path="url(#p1f48b0718b)">
     <use xlink:href="#C0_0_f9675357be" x="193.540022" y="232.720063" style="fill: #cc660b; fill-opacity: 0.7; stroke: #ffffff; stroke-opacity: 0.7; stroke-width: 0.48"/>
    </g>
    <g clip-path="url(#p1f48b0718b)">
     <use xlink:href="#C0_0_f9675357be" x="209.614351" y="236.245816" style="fill: #cc660b; fill-opacity: 0.7; stroke: #ffffff; stroke-opacity: 0.7; stroke-width: 0.48"/>
    </g>
    <g clip-path="url(#p1f48b0718b)">
     <use xlink:href="#C0_0_f9675357be" x="198.191572" y="233.636042" style="fill: #765297; fill-opacity: 0.7; stroke: #ffffff; stroke-opacity: 0.7; stroke-width: 0.48"/>
    </g>
    <g clip-path="url(#p1f48b0718b)">
     <use xlink:href="#C0_0_f9675357be" x="127.890225" y="193.27743" style="fill: #195f90; fill-opacity: 0.7; stroke: #ffffff; stroke-opacity: 0.7; stroke-width: 0.48"/>
    </g>
    <g clip-path="url(#p1f48b0718b)">
     <use xlink:href="#C0_0_f9675357be" x="217.403761" y="236.775408" style="fill: #195f90; fill-opacity: 0.7; stroke: #ffffff; stroke-opacity: 0.7; stroke-width: 0.48"/>
    </g>
    <g clip-path="url(#p1f48b0718b)">
     <use xlink:href="#C0_0_f9675357be" x="90.048104" y="137.97464" style="fill: #195f90; fill-opacity: 0.7; stroke: #ffffff; stroke-opacity: 0.7; stroke-width: 0.48"/>
    </g>
    <g clip-path="url(#p1f48b0718b)">
     <use xlink:href="#C0_0_f9675357be" x="152.019301" y="211.433241" style="fill: #195f90; fill-opacity: 0.7; stroke: #ffffff; stroke-opacity: 0.7; stroke-width: 0.48"/>
    </g>
    <g clip-path="url(#p1f48b0718b)">
     <use xlink:href="#C0_0_f9675357be" x="200.250107" y="234.090109" style="fill: #195f90; fill-opacity: 0.7; stroke: #ffffff; stroke-opacity: 0.7; stroke-width: 0.48"/>
    </g>
    <g clip-path="url(#p1f48b0718b)">
     <use xlink:href="#C0_0_f9675357be" x="257.762512" y="240.525953" style="fill: #195f90; fill-opacity: 0.7; stroke: #ffffff; stroke-opacity: 0.7; stroke-width: 0.48"/>
    </g>
    <g clip-path="url(#p1f48b0718b)">
     <use xlink:href="#C0_0_f9675357be" x="182.913296" y="229.200941" style="fill: #195f90; fill-opacity: 0.7; stroke: #ffffff; stroke-opacity: 0.7; stroke-width: 0.48"/>
    </g>
    <g clip-path="url(#p1f48b0718b)">
     <use xlink:href="#C0_0_f9675357be" x="187.020754" y="231.833845" style="fill: #195f90; fill-opacity: 0.7; stroke: #ffffff; stroke-opacity: 0.7; stroke-width: 0.48"/>
    </g>
    <g clip-path="url(#p1f48b0718b)">
     <use xlink:href="#C0_0_f9675357be" x="218.132941" y="236.92766" style="fill: #195f90; fill-opacity: 0.7; stroke: #ffffff; stroke-opacity: 0.7; stroke-width: 0.48"/>
    </g>
    <g clip-path="url(#p1f48b0718b)">
     <use xlink:href="#C0_0_f9675357be" x="274.260579" y="241.523024" style="fill: #195f90; fill-opacity: 0.7; stroke: #ffffff; stroke-opacity: 0.7; stroke-width: 0.48"/>
    </g>
    <g clip-path="url(#p1f48b0718b)">
     <use xlink:href="#C0_0_f9675357be" x="172.452261" y="227.644558" style="fill: #195f90; fill-opacity: 0.7; stroke: #ffffff; stroke-opacity: 0.7; stroke-width: 0.48"/>
    </g>
    <g clip-path="url(#p1f48b0718b)">
     <use xlink:href="#C0_0_f9675357be" x="244.764911" y="239.768828" style="fill: #195f90; fill-opacity: 0.7; stroke: #ffffff; stroke-opacity: 0.7; stroke-width: 0.48"/>
    </g>
    <g clip-path="url(#p1f48b0718b)">
     <use xlink:href="#C0_0_f9675357be" x="102.557302" y="144.832142" style="fill: #195f90; fill-opacity: 0.7; stroke: #ffffff; stroke-opacity: 0.7; stroke-width: 0.48"/>
    </g>
    <g clip-path="url(#p1f48b0718b)">
     <use xlink:href="#C0_0_f9675357be" x="74.868182" y="70.047701" style="fill: #195f90; fill-opacity: 0.7; stroke: #ffffff; stroke-opacity: 0.7; stroke-width: 0.48"/>
    </g>
    <g clip-path="url(#p1f48b0718b)">
     <use xlink:href="#C0_0_f9675357be" x="88.266713" y="115.241305" style="fill: #195f90; fill-opacity: 0.7; stroke: #ffffff; stroke-opacity: 0.7; stroke-width: 0.48"/>
    </g>
    <g clip-path="url(#p1f48b0718b)">
     <use xlink:href="#C0_0_f9675357be" x="169.562482" y="224.461696" style="fill: #ab1f20; fill-opacity: 0.7; stroke: #ffffff; stroke-opacity: 0.7; stroke-width: 0.48"/>
    </g>
    <g clip-path="url(#p1f48b0718b)">
     <use xlink:href="#C0_0_f9675357be" x="142.913818" y="193.663946" style="fill: #ab1f20; fill-opacity: 0.7; stroke: #ffffff; stroke-opacity: 0.7; stroke-width: 0.48"/>
    </g>
    <g clip-path="url(#p1f48b0718b)">
     <use xlink:href="#C0_0_f9675357be" x="189.504654" y="229.044851" style="fill: #ab1f20; fill-opacity: 0.7; stroke: #ffffff; stroke-opacity: 0.7; stroke-width: 0.48"/>
    </g>
   </g>
   <g id="matplotlib.axis_1">
    <g id="xtick_1">
     <g id="line2d_1">
      <defs>
       <path id="m96140a83a0" d="M 0 0 
L 0 3.5 
" style="stroke: #000000; stroke-width: 0.8"/>
      </defs>
      <g>
       <use xlink:href="#m96140a83a0" x="110.994261" y="243.16" style="stroke: #000000; stroke-width: 0.8"/>
      </g>
     </g>
     <g id="text_1">
      <text style="font: 10px 'DejaVu Sans', 'Bitstream Vera Sans', 'Computer Modern Sans Serif', 'Lucida Grande', 'Verdana', 'Geneva', 'Lucid', 'Arial', 'Helvetica', 'Avant Garde', sans-serif; text-anchor: middle" x="110.994261" y="257.758438" transform="rotate(-0 110.994261 257.758438)">2</text>
     </g>
    </g>
    <g id="xtick_2">
     <g id="line2d_2">
      <g>
       <use xlink:href="#m96140a83a0" x="159.503385" y="243.16" style="stroke: #000000; stroke-width: 0.8"/>
      </g>
     </g>
     <g id="text_2">
      <text style="font: 10px 'DejaVu Sans', 'Bitstream Vera Sans', 'Computer Modern Sans Serif', 'Lucida Grande', 'Verdana', 'Geneva', 'Lucid', 'Arial', 'Helvetica', 'Avant Garde', sans-serif; text-anchor: middle" x="159.503385" y="257.758438" transform="rotate(-0 159.503385 257.758438)">3</text>
     </g>
    </g>
    <g id="xtick_3">
     <g id="line2d_3">
      <g>
       <use xlink:href="#m96140a83a0" x="208.01251" y="243.16" style="stroke: #000000; stroke-width: 0.8"/>
      </g>
     </g>
     <g id="text_3">
      <text style="font: 10px 'DejaVu Sans', 'Bitstream Vera Sans', 'Computer Modern Sans Serif', 'Lucida Grande', 'Verdana', 'Geneva', 'Lucid', 'Arial', 'Helvetica', 'Avant Garde', sans-serif; text-anchor: middle" x="208.01251" y="257.758438" transform="rotate(-0 208.01251 257.758438)">4</text>
     </g>
    </g>
    <g id="xtick_4">
     <g id="line2d_4">
      <g>
       <use xlink:href="#m96140a83a0" x="256.521635" y="243.16" style="stroke: #000000; stroke-width: 0.8"/>
      </g>
     </g>
     <g id="text_4">
      <text style="font: 10px 'DejaVu Sans', 'Bitstream Vera Sans', 'Computer Modern Sans Serif', 'Lucida Grande', 'Verdana', 'Geneva', 'Lucid', 'Arial', 'Helvetica', 'Avant Garde', sans-serif; text-anchor: middle" x="256.521635" y="257.758438" transform="rotate(-0 256.521635 257.758438)">5</text>
     </g>
    </g>
    <g id="xtick_5">
     <g id="line2d_5">
      <g>
       <use xlink:href="#m96140a83a0" x="305.030759" y="243.16" style="stroke: #000000; stroke-width: 0.8"/>
      </g>
     </g>
     <g id="text_5">
      <text style="font: 10px 'DejaVu Sans', 'Bitstream Vera Sans', 'Computer Modern Sans Serif', 'Lucida Grande', 'Verdana', 'Geneva', 'Lucid', 'Arial', 'Helvetica', 'Avant Garde', sans-serif; text-anchor: middle" x="305.030759" y="257.758438" transform="rotate(-0 305.030759 257.758438)">6</text>
     </g>
    </g>
    <g id="text_6">
     <text style="font: 12px 'DejaVu Sans', 'Bitstream Vera Sans', 'Computer Modern Sans Serif', 'Lucida Grande', 'Verdana', 'Geneva', 'Lucid', 'Arial', 'Helvetica', 'Avant Garde', sans-serif; text-anchor: middle" x="191.55" y="272.95625" transform="rotate(-0 191.55 272.95625)">Count</text>
    </g>
   </g>
   <g id="matplotlib.axis_2">
    <g id="ytick_1">
     <g id="line2d_6">
      <defs>
       <path id="m419cdb3703" d="M 0 0 
L -3.5 0 
" style="stroke: #000000; stroke-width: 0.8"/>
      </defs>
      <g>
       <use xlink:href="#m419cdb3703" x="63.2" y="243.16" style="stroke: #000000; stroke-width: 0.8"/>
      </g>
     </g>
     <g id="text_7">
      <text style="font: 10px 'DejaVu Sans', 'Bitstream Vera Sans', 'Computer Modern Sans Serif', 'Lucida Grande', 'Verdana', 'Geneva', 'Lucid', 'Arial', 'Helvetica', 'Avant Garde', sans-serif; text-anchor: end" x="56.2" y="246.959219" transform="rotate(-0 56.2 246.959219)">0.000</text>
     </g>
    </g>
    <g id="ytick_2">
     <g id="line2d_7">
      <g>
       <use xlink:href="#m419cdb3703" x="63.2" y="219.288889" style="stroke: #000000; stroke-width: 0.8"/>
      </g>
     </g>
     <g id="text_8">
      <text style="font: 10px 'DejaVu Sans', 'Bitstream Vera Sans', 'Computer Modern Sans Serif', 'Lucida Grande', 'Verdana', 'Geneva', 'Lucid', 'Arial', 'Helvetica', 'Avant Garde', sans-serif; text-anchor: end" x="56.2" y="223.088108" transform="rotate(-0 56.2 223.088108)">0.025</text>
     </g>
    </g>
    <g id="ytick_3">
     <g id="line2d_8">
      <g>
       <use xlink:href="#m419cdb3703" x="63.2" y="195.417778" style="stroke: #000000; stroke-width: 0.8"/>
      </g>
     </g>
     <g id="text_9">
      <text style="font: 10px 'DejaVu Sans', 'Bitstream Vera Sans', 'Computer Modern Sans Serif', 'Lucida Grande', 'Verdana', 'Geneva', 'Lucid', 'Arial', 'Helvetica', 'Avant Garde', sans-serif; text-anchor: end" x="56.2" y="199.216997" transform="rotate(-0 56.2 199.216997)">0.050</text>
     </g>
    </g>
    <g id="ytick_4">
     <g id="line2d_9">
      <g>
       <use xlink:href="#m419cdb3703" x="63.2" y="171.546667" style="stroke: #000000; stroke-width: 0.8"/>
      </g>
     </g>
     <g id="text_10">
      <text style="font: 10px 'DejaVu Sans', 'Bitstream Vera Sans', 'Computer Modern Sans Serif', 'Lucida Grande', 'Verdana', 'Geneva', 'Lucid', 'Arial', 'Helvetica', 'Avant Garde', sans-serif; text-anchor: end" x="56.2" y="175.345885" transform="rotate(-0 56.2 175.345885)">0.075</text>
     </g>
    </g>
    <g id="ytick_5">
     <g id="line2d_10">
      <g>
       <use xlink:href="#m419cdb3703" x="63.2" y="147.675556" style="stroke: #000000; stroke-width: 0.8"/>
      </g>
     </g>
     <g id="text_11">
      <text style="font: 10px 'DejaVu Sans', 'Bitstream Vera Sans', 'Computer Modern Sans Serif', 'Lucida Grande', 'Verdana', 'Geneva', 'Lucid', 'Arial', 'Helvetica', 'Avant Garde', sans-serif; text-anchor: end" x="56.2" y="151.474774" transform="rotate(-0 56.2 151.474774)">0.100</text>
     </g>
    </g>
    <g id="ytick_6">
     <g id="line2d_11">
      <g>
       <use xlink:href="#m419cdb3703" x="63.2" y="123.804444" style="stroke: #000000; stroke-width: 0.8"/>
      </g>
     </g>
     <g id="text_12">
      <text style="font: 10px 'DejaVu Sans', 'Bitstream Vera Sans', 'Computer Modern Sans Serif', 'Lucida Grande', 'Verdana', 'Geneva', 'Lucid', 'Arial', 'Helvetica', 'Avant Garde', sans-serif; text-anchor: end" x="56.2" y="127.603663" transform="rotate(-0 56.2 127.603663)">0.125</text>
     </g>
    </g>
    <g id="ytick_7">
     <g id="line2d_12">
      <g>
       <use xlink:href="#m419cdb3703" x="63.2" y="99.933333" style="stroke: #000000; stroke-width: 0.8"/>
      </g>
     </g>
     <g id="text_13">
      <text style="font: 10px 'DejaVu Sans', 'Bitstream Vera Sans', 'Computer Modern Sans Serif', 'Lucida Grande', 'Verdana', 'Geneva', 'Lucid', 'Arial', 'Helvetica', 'Avant Garde', sans-serif; text-anchor: end" x="56.2" y="103.732552" transform="rotate(-0 56.2 103.732552)">0.150</text>
     </g>
    </g>
    <g id="ytick_8">
     <g id="line2d_13">
      <g>
       <use xlink:href="#m419cdb3703" x="63.2" y="76.062222" style="stroke: #000000; stroke-width: 0.8"/>
      </g>
     </g>
     <g id="text_14">
      <text style="font: 10px 'DejaVu Sans', 'Bitstream Vera Sans', 'Computer Modern Sans Serif', 'Lucida Grande', 'Verdana', 'Geneva', 'Lucid', 'Arial', 'Helvetica', 'Avant Garde', sans-serif; text-anchor: end" x="56.2" y="79.861441" transform="rotate(-0 56.2 79.861441)">0.175</text>
     </g>
    </g>
    <g id="ytick_9">
     <g id="line2d_14">
      <g>
       <use xlink:href="#m419cdb3703" x="63.2" y="52.191111" style="stroke: #000000; stroke-width: 0.8"/>
      </g>
     </g>
     <g id="text_15">
      <text style="font: 10px 'DejaVu Sans', 'Bitstream Vera Sans', 'Computer Modern Sans Serif', 'Lucida Grande', 'Verdana', 'Geneva', 'Lucid', 'Arial', 'Helvetica', 'Avant Garde', sans-serif; text-anchor: end" x="56.2" y="55.99033" transform="rotate(-0 56.2 55.99033)">0.200</text>
     </g>
    </g>
    <g id="ytick_10">
     <g id="line2d_15">
      <g>
       <use xlink:href="#m419cdb3703" x="63.2" y="28.32" style="stroke: #000000; stroke-width: 0.8"/>
      </g>
     </g>
     <g id="text_16">
      <text style="font: 10px 'DejaVu Sans', 'Bitstream Vera Sans', 'Computer Modern Sans Serif', 'Lucida Grande', 'Verdana', 'Geneva', 'Lucid', 'Arial', 'Helvetica', 'Avant Garde', sans-serif; text-anchor: end" x="56.2" y="32.119219" transform="rotate(-0 56.2 32.119219)">0.225</text>
     </g>
    </g>
    <g id="text_17">
     <text style="font: 12px 'DejaVu Sans', 'Bitstream Vera Sans', 'Computer Modern Sans Serif', 'Lucida Grande', 'Verdana', 'Geneva', 'Lucid', 'Arial', 'Helvetica', 'Avant Garde', sans-serif; text-anchor: middle" x="21.07625" y="135.74" transform="rotate(-90 21.07625 135.74)">Average Absolute Correlation</text>
    </g>
   </g>
   <g id="line2d_16"/>
   <g id="line2d_17"/>
   <g id="line2d_18"/>
   <g id="line2d_19"/>
   <g id="line2d_20"/>
   <g id="line2d_21"/>
   <g id="line2d_22">
    <path d="M 74.868182 73.506336 
L 78.386227 86.449597 
L 81.904271 98.418886 
L 85.422316 109.485508 
L 88.940361 119.71584 
L 92.458406 129.171627 
L 95.97645 137.910273 
L 99.494495 145.985107 
L 103.01254 153.445652 
L 106.530585 160.337868 
L 110.04863 166.704391 
L 113.566674 172.584756 
L 117.084719 178.015608 
L 120.602764 183.0309 
L 124.120809 187.662082 
L 127.638853 191.938276 
L 131.156898 195.886439 
L 134.674943 199.531517 
L 138.192988 202.896595 
L 141.711032 206.003023 
L 145.229077 208.870549 
L 148.747122 211.517432 
L 153.437848 214.732376 
L 158.128575 217.621454 
L 162.819301 220.217545 
L 167.510027 222.55024 
L 172.200754 224.646165 
L 176.89148 226.529274 
L 182.754888 228.6165 
L 188.618296 230.44208 
L 194.481704 232.038741 
L 201.517794 233.692642 
L 208.553883 235.100767 
L 215.589973 236.299588 
L 223.798744 237.474871 
L 233.180196 238.573704 
L 243.734331 239.558247 
L 255.461147 240.406438 
L 268.360644 241.110704 
L 283.605505 241.714628 
L 302.36841 242.219509 
L 308.231818 242.337695 
L 308.231818 242.337695 
" clip-path="url(#p1f48b0718b)" style="fill: none; stroke-dasharray: 9.25,4; stroke-dashoffset: 0; stroke: #000000; stroke-width: 2.5"/>
   </g>
   <g id="patch_3">
    <path d="M 63.2 243.16 
L 63.2 28.32 
" style="fill: none; stroke: #000000; stroke-width: 0.8; stroke-linejoin: miter; stroke-linecap: square"/>
   </g>
   <g id="patch_4">
    <path d="M 319.9 243.16 
L 319.9 28.32 
" style="fill: none; stroke: #000000; stroke-width: 0.8; stroke-linejoin: miter; stroke-linecap: square"/>
   </g>
   <g id="patch_5">
    <path d="M 63.2 243.16 
L 319.9 243.16 
" style="fill: none; stroke: #000000; stroke-width: 0.8; stroke-linejoin: miter; stroke-linecap: square"/>
   </g>
   <g id="patch_6">
    <path d="M 63.2 28.32 
L 319.9 28.32 
" style="fill: none; stroke: #000000; stroke-width: 0.8; stroke-linejoin: miter; stroke-linecap: square"/>
   </g>
   <g id="text_18">
    <g id="patch_7">
     <path d="M 76.035 76.157625 
L 278.235 76.157625 
Q 283.235 76.157625 283.235 71.157625 
L 283.235 39.041687 
Q 283.235 34.041687 278.235 34.041687 
L 76.035 34.041687 
Q 71.035 34.041687 71.035 39.041687 
L 71.035 71.157625 
Q 71.035 76.157625 76.035 76.157625 
z
" style="fill: #ffffff; opacity: 0.7; stroke: #000000; stroke-linejoin: miter"/>
    </g>
    <!-- y = 11.27 / (1 + exp(- -1.11 $\cdot$ (x - -2.47))) -->
    <g transform="translate(76.035 46.662)">
     <text>
      <tspan style="font: 10px 'DejaVu Sans'" x="0 5.917969 9.09668 17.475586 20.654297 27.016602 33.378906 36.057617 42.419922 48.782227 51.960938 55.330078 58.508789 62.410156 68.772461 71.951172 80.330078 83.508789 89.661133 95.579102 101.926758 105.828125 109.436523 113.044922 119.407227 122.585938 128.948242 135.310547 138.489258 141.667969 144.84668 148.748047 154.666016 157.844727 161.453125 164.631836 168.240234 174.602539 177.78125 184.143555 190.505859 194.407227 198.308594" y="-0.40625">y = 11.27 / (1 + exp(--1.11 ⋅ (x - -2.47)))</tspan>
     </text>
    </g>
    <!-- $R^2$ = 0.989 -->
    <g transform="translate(76.035 57.880125)">
     <text>
      <tspan style="font: oblique 10px 'DejaVu Sans'" x="0" y="-0.9765625">R</tspan>
      <tspan style="font: 7px 'DejaVu Sans'" x="7.650794" y="-4.8046875">2</tspan>
      <tspan style="font: 10px 'DejaVu Sans'" x="12.377845 15.556556 23.935462 27.114173 33.476478 36.655189 43.017493 49.379798" y="-0.9765625"> = 0.989</tspan>
     </text>
    </g>
    <text style="font: 10px 'DejaVu Sans', 'Bitstream Vera Sans', 'Computer Modern Sans Serif', 'Lucida Grande', 'Verdana', 'Geneva', 'Lucid', 'Arial', 'Helvetica', 'Avant Garde', sans-serif" transform="translate(76.035 69.077938)">p &lt; 0.001</text>
   </g>
   <g id="text_19">
    <text style="font: 16px 'DejaVu Sans', 'Bitstream Vera Sans', 'Computer Modern Sans Serif', 'Lucida Grande', 'Verdana', 'Geneva', 'Lucid', 'Arial', 'Helvetica', 'Avant Garde', sans-serif; text-anchor: middle" x="191.55" y="22.32" transform="rotate(-0 191.55 22.32)">Sigmoidal Fit of Correlation vs. Count</text>
   </g>
   <g id="legend_1">
    <g id="patch_8">
     <path d="M 326.9 188.613438 
L 415.609375 188.613438 
Q 417.609375 188.613438 417.609375 186.613438 
L 417.609375 84.866563 
Q 417.609375 82.866563 415.609375 82.866563 
L 326.9 82.866563 
Q 324.9 82.866563 324.9 84.866563 
L 324.9 186.613438 
Q 324.9 188.613438 326.9 188.613438 
z
" style="fill: #ffffff; opacity: 0.8; stroke: #cccccc; stroke-linejoin: miter"/>
    </g>
    <g id="line2d_23">
     <defs>
      <path id="m3d4590de3c" d="M 0 3 
C 0.795609 3 1.55874 2.683901 2.12132 2.12132 
C 2.683901 1.55874 3 0.795609 3 0 
C 3 -0.795609 2.683901 -1.55874 2.12132 -2.12132 
C 1.55874 -2.683901 0.795609 -3 0 -3 
C -0.795609 -3 -1.55874 -2.683901 -2.12132 -2.12132 
C -2.683901 -1.55874 -3 -0.795609 -3 0 
C -3 0.795609 -2.683901 1.55874 -2.12132 2.12132 
C -1.55874 2.683901 -0.795609 3 0 3 
z
" style="stroke: #ffffff; stroke-opacity: 0.7; stroke-width: 0.48"/>
     </defs>
     <g>
      <use xlink:href="#m3d4590de3c" x="338.9" y="90.965" style="fill: #ab1f20; fill-opacity: 0.7; stroke: #ffffff; stroke-opacity: 0.7; stroke-width: 0.48"/>
     </g>
    </g>
    <g id="text_20">
     <text style="font: 10px 'DejaVu Sans', 'Bitstream Vera Sans', 'Computer Modern Sans Serif', 'Lucida Grande', 'Verdana', 'Geneva', 'Lucid', 'Arial', 'Helvetica', 'Avant Garde', sans-serif; text-anchor: start" x="356.9" y="94.465" transform="rotate(-0 356.9 94.465)">SINE</text>
    </g>
    <g id="line2d_24">
     <defs>
      <path id="m6bf3f5da6b" d="M 0 3 
C 0.795609 3 1.55874 2.683901 2.12132 2.12132 
C 2.683901 1.55874 3 0.795609 3 0 
C 3 -0.795609 2.683901 -1.55874 2.12132 -2.12132 
C 1.55874 -2.683901 0.795609 -3 0 -3 
C -0.795609 -3 -1.55874 -2.683901 -2.12132 -2.12132 
C -2.683901 -1.55874 -3 -0.795609 -3 0 
C -3 0.795609 -2.683901 1.55874 -2.12132 2.12132 
C -1.55874 2.683901 -0.795609 3 0 3 
z
" style="stroke: #ffffff; stroke-opacity: 0.7; stroke-width: 0.48"/>
     </defs>
     <g>
      <use xlink:href="#m6bf3f5da6b" x="338.9" y="105.643125" style="fill: #cc660b; fill-opacity: 0.7; stroke: #ffffff; stroke-opacity: 0.7; stroke-width: 0.48"/>
     </g>
    </g>
    <g id="text_21">
     <text style="font: 10px 'DejaVu Sans', 'Bitstream Vera Sans', 'Computer Modern Sans Serif', 'Lucida Grande', 'Verdana', 'Geneva', 'Lucid', 'Arial', 'Helvetica', 'Avant Garde', sans-serif; text-anchor: start" x="356.9" y="109.143125" transform="rotate(-0 356.9 109.143125)">LINE</text>
    </g>
    <g id="line2d_25">
     <defs>
      <path id="m276d84b424" d="M 0 3 
C 0.795609 3 1.55874 2.683901 2.12132 2.12132 
C 2.683901 1.55874 3 0.795609 3 0 
C 3 -0.795609 2.683901 -1.55874 2.12132 -2.12132 
C 1.55874 -2.683901 0.795609 -3 0 -3 
C -0.795609 -3 -1.55874 -2.683901 -2.12132 -2.12132 
C -2.683901 -1.55874 -3 -0.795609 -3 0 
C -3 0.795609 -2.683901 1.55874 -2.12132 2.12132 
C -1.55874 2.683901 -0.795609 3 0 3 
z
" style="stroke: #ffffff; stroke-opacity: 0.7; stroke-width: 0.48"/>
     </defs>
     <g>
      <use xlink:href="#m276d84b424" x="338.9" y="120.32125" style="fill: #195f90; fill-opacity: 0.7; stroke: #ffffff; stroke-opacity: 0.7; stroke-width: 0.48"/>
     </g>
    </g>
    <g id="text_22">
     <text style="font: 10px 'DejaVu Sans', 'Bitstream Vera Sans', 'Computer Modern Sans Serif', 'Lucida Grande', 'Verdana', 'Geneva', 'Lucid', 'Arial', 'Helvetica', 'Avant Garde', sans-serif; text-anchor: start" x="356.9" y="123.82125" transform="rotate(-0 356.9 123.82125)">DNA</text>
    </g>
    <g id="line2d_26">
     <defs>
      <path id="mb0b302a224" d="M 0 3 
C 0.795609 3 1.55874 2.683901 2.12132 2.12132 
C 2.683901 1.55874 3 0.795609 3 0 
C 3 -0.795609 2.683901 -1.55874 2.12132 -2.12132 
C 1.55874 -2.683901 0.795609 -3 0 -3 
C -0.795609 -3 -1.55874 -2.683901 -2.12132 -2.12132 
C -2.683901 -1.55874 -3 -0.795609 -3 0 
C -3 0.795609 -2.683901 1.55874 -2.12132 2.12132 
C -1.55874 2.683901 -0.795609 3 0 3 
z
" style="stroke: #ffffff; stroke-opacity: 0.7; stroke-width: 0.48"/>
     </defs>
     <g>
      <use xlink:href="#mb0b302a224" x="338.9" y="134.999375" style="fill: #70453c; fill-opacity: 0.7; stroke: #ffffff; stroke-opacity: 0.7; stroke-width: 0.48"/>
     </g>
    </g>
    <g id="text_23">
     <text style="font: 10px 'DejaVu Sans', 'Bitstream Vera Sans', 'Computer Modern Sans Serif', 'Lucida Grande', 'Verdana', 'Geneva', 'Lucid', 'Arial', 'Helvetica', 'Avant Garde', sans-serif; text-anchor: start" x="356.9" y="138.499375" transform="rotate(-0 356.9 138.499375)">LTR</text>
    </g>
    <g id="line2d_27">
     <defs>
      <path id="m9e09145229" d="M 0 3 
C 0.795609 3 1.55874 2.683901 2.12132 2.12132 
C 2.683901 1.55874 3 0.795609 3 0 
C 3 -0.795609 2.683901 -1.55874 2.12132 -2.12132 
C 1.55874 -2.683901 0.795609 -3 0 -3 
C -0.795609 -3 -1.55874 -2.683901 -2.12132 -2.12132 
C -2.683901 -1.55874 -3 -0.795609 -3 0 
C -3 0.795609 -2.683901 1.55874 -2.12132 2.12132 
C -1.55874 2.683901 -0.795609 3 0 3 
z
" style="stroke: #ffffff; stroke-opacity: 0.7; stroke-width: 0.48"/>
     </defs>
     <g>
      <use xlink:href="#m9e09145229" x="338.9" y="149.6775" style="fill: #238023; fill-opacity: 0.7; stroke: #ffffff; stroke-opacity: 0.7; stroke-width: 0.48"/>
     </g>
    </g>
    <g id="text_24">
     <text style="font: 10px 'DejaVu Sans', 'Bitstream Vera Sans', 'Computer Modern Sans Serif', 'Lucida Grande', 'Verdana', 'Geneva', 'Lucid', 'Arial', 'Helvetica', 'Avant Garde', sans-serif; text-anchor: start" x="356.9" y="153.1775" transform="rotate(-0 356.9 153.1775)">RC</text>
    </g>
    <g id="line2d_28">
     <defs>
      <path id="m411c885d87" d="M 0 3 
C 0.795609 3 1.55874 2.683901 2.12132 2.12132 
C 2.683901 1.55874 3 0.795609 3 0 
C 3 -0.795609 2.683901 -1.55874 2.12132 -2.12132 
C 1.55874 -2.683901 0.795609 -3 0 -3 
C -0.795609 -3 -1.55874 -2.683901 -2.12132 -2.12132 
C -2.683901 -1.55874 -3 -0.795609 -3 0 
C -3 0.795609 -2.683901 1.55874 -2.12132 2.12132 
C -1.55874 2.683901 -0.795609 3 0 3 
z
" style="stroke: #ffffff; stroke-opacity: 0.7; stroke-width: 0.48"/>
     </defs>
     <g>
      <use xlink:href="#m411c885d87" x="338.9" y="164.355625" style="fill: #765297; fill-opacity: 0.7; stroke: #ffffff; stroke-opacity: 0.7; stroke-width: 0.48"/>
     </g>
    </g>
    <g id="text_25">
     <text style="font: 10px 'DejaVu Sans', 'Bitstream Vera Sans', 'Computer Modern Sans Serif', 'Lucida Grande', 'Verdana', 'Geneva', 'Lucid', 'Arial', 'Helvetica', 'Avant Garde', sans-serif; text-anchor: start" x="356.9" y="167.855625" transform="rotate(-0 356.9 167.855625)">Retroposon</text>
    </g>
    <g id="line2d_29">
     <path d="M 328.9 179.03375 
L 338.9 179.03375 
L 348.9 179.03375 
" style="fill: none; stroke-dasharray: 9.25,4; stroke-dashoffset: 0; stroke: #000000; stroke-width: 2.5"/>
    </g>
    <g id="text_26">
     <text style="font: 10px 'DejaVu Sans', 'Bitstream Vera Sans', 'Computer Modern Sans Serif', 'Lucida Grande', 'Verdana', 'Geneva', 'Lucid', 'Arial', 'Helvetica', 'Avant Garde', sans-serif; text-anchor: start" x="356.9" y="182.53375" transform="rotate(-0 356.9 182.53375)">Sigmoid Fit</text>
    </g>
   </g>
  </g>
 </g>
 <defs>
  <clipPath id="p1f48b0718b">
   <rect x="63.2" y="28.32" width="256.7" height="214.84"/>
  </clipPath>
 </defs>
</svg>
