<?xml version="1.0" encoding="utf-8" standalone="no"?>
<!DOCTYPE svg PUBLIC "-//W3C//DTD SVG 1.1//EN"
  "http://www.w3.org/Graphics/SVG/1.1/DTD/svg11.dtd">
<svg xmlns:xlink="http://www.w3.org/1999/xlink" width="360pt" height="360pt" viewBox="0 0 360 360" xmlns="http://www.w3.org/2000/svg" version="1.1">
 <metadata>
  <rdf:RDF xmlns:dc="http://purl.org/dc/elements/1.1/" xmlns:cc="http://creativecommons.org/ns#" xmlns:rdf="http://www.w3.org/1999/02/22-rdf-syntax-ns#">
   <cc:Work>
    <dc:type rdf:resource="http://purl.org/dc/dcmitype/StillImage"/>
    <dc:date>2025-10-19T08:06:48.681288</dc:date>
    <dc:format>image/svg+xml</dc:format>
    <dc:creator>
     <cc:Agent>
      <dc:title>Matplotlib v3.8.4, https://matplotlib.org/</dc:title>
     </cc:Agent>
    </dc:creator>
   </cc:Work>
  </rdf:RDF>
 </metadata>
 <defs>
  <style type="text/css">*{stroke-linejoin: round; stroke-linecap: butt}</style>
 </defs>
 <g id="figure_1">
  <g id="patch_1">
   <path d="M 0 360 
L 360 360 
L 360 0 
L 0 0 
z
" style="fill: #ffffff"/>
  </g>
  <g id="axes_1">
   <g id="patch_2">
    <path d="M 63.47 318.04 
L 342.080606 318.04 
L 342.080606 10.8 
L 63.47 10.8 
z
" style="fill: #ffffff"/>
   </g>
   <g id="patch_3">
    <path d="M 76.134118 318.04 
L 78.666942 318.04 
L 78.666942 307.910689 
L 76.134118 307.910689 
z
" clip-path="url(#p410f1d39e1)" style="fill: #1f77b4; fill-opacity: 0.75; stroke: #000000; stroke-width: 0.279673; stroke-linejoin: miter"/>
   </g>
   <g id="patch_4">
    <path d="M 78.666942 318.04 
L 81.199766 318.04 
L 81.199766 309.127961 
L 78.666942 309.127961 
z
" clip-path="url(#p410f1d39e1)" style="fill: #1f77b4; fill-opacity: 0.75; stroke: #000000; stroke-width: 0.279673; stroke-linejoin: miter"/>
   </g>
   <g id="patch_5">
    <path d="M 81.199766 318.04 
L 83.73259 318.04 
L 83.73259 302.749163 
L 81.199766 302.749163 
z
" clip-path="url(#p410f1d39e1)" style="fill: #1f77b4; fill-opacity: 0.75; stroke: #000000; stroke-width: 0.279673; stroke-linejoin: miter"/>
   </g>
   <g id="patch_6">
    <path d="M 83.73259 318.04 
L 86.265413 318.04 
L 86.265413 301.243109 
L 83.73259 301.243109 
z
" clip-path="url(#p410f1d39e1)" style="fill: #1f77b4; fill-opacity: 0.75; stroke: #000000; stroke-width: 0.279673; stroke-linejoin: miter"/>
   </g>
   <g id="patch_7">
    <path d="M 86.265413 318.04 
L 88.798237 318.04 
L 88.798237 301.085923 
L 86.265413 301.085923 
z
" clip-path="url(#p410f1d39e1)" style="fill: #1f77b4; fill-opacity: 0.75; stroke: #000000; stroke-width: 0.279673; stroke-linejoin: miter"/>
   </g>
   <g id="patch_8">
    <path d="M 88.798237 318.04 
L 91.331061 318.04 
L 91.331061 295.109228 
L 88.798237 295.109228 
z
" clip-path="url(#p410f1d39e1)" style="fill: #1f77b4; fill-opacity: 0.75; stroke: #000000; stroke-width: 0.279673; stroke-linejoin: miter"/>
   </g>
   <g id="patch_9">
    <path d="M 91.331061 318.04 
L 93.863884 318.04 
L 93.863884 289.790517 
L 91.331061 289.790517 
z
" clip-path="url(#p410f1d39e1)" style="fill: #1f77b4; fill-opacity: 0.75; stroke: #000000; stroke-width: 0.279673; stroke-linejoin: miter"/>
   </g>
   <g id="patch_10">
    <path d="M 93.863884 318.04 
L 96.396708 318.04 
L 96.396708 289.461524 
L 93.863884 289.461524 
z
" clip-path="url(#p410f1d39e1)" style="fill: #1f77b4; fill-opacity: 0.75; stroke: #000000; stroke-width: 0.279673; stroke-linejoin: miter"/>
   </g>
   <g id="patch_11">
    <path d="M 96.396708 318.04 
L 98.929532 318.04 
L 98.929532 279.858601 
L 96.396708 279.858601 
z
" clip-path="url(#p410f1d39e1)" style="fill: #1f77b4; fill-opacity: 0.75; stroke: #000000; stroke-width: 0.279673; stroke-linejoin: miter"/>
   </g>
   <g id="patch_12">
    <path d="M 98.929532 318.04 
L 101.462355 318.04 
L 101.462355 284.647268 
L 98.929532 284.647268 
z
" clip-path="url(#p410f1d39e1)" style="fill: #1f77b4; fill-opacity: 0.75; stroke: #000000; stroke-width: 0.279673; stroke-linejoin: miter"/>
   </g>
   <g id="patch_13">
    <path d="M 101.462355 318.04 
L 103.995179 318.04 
L 103.995179 264.648184 
L 101.462355 264.648184 
z
" clip-path="url(#p410f1d39e1)" style="fill: #1f77b4; fill-opacity: 0.75; stroke: #000000; stroke-width: 0.279673; stroke-linejoin: miter"/>
   </g>
   <g id="patch_14">
    <path d="M 103.995179 318.04 
L 106.528003 318.04 
L 106.528003 250.984032 
L 103.995179 250.984032 
z
" clip-path="url(#p410f1d39e1)" style="fill: #1f77b4; fill-opacity: 0.75; stroke: #000000; stroke-width: 0.279673; stroke-linejoin: miter"/>
   </g>
   <g id="patch_15">
    <path d="M 106.528003 318.04 
L 109.060826 318.04 
L 109.060826 232.425203 
L 106.528003 232.425203 
z
" clip-path="url(#p410f1d39e1)" style="fill: #1f77b4; fill-opacity: 0.75; stroke: #000000; stroke-width: 0.279673; stroke-linejoin: miter"/>
   </g>
   <g id="patch_16">
    <path d="M 109.060826 318.04 
L 111.59365 318.04 
L 111.59365 225.249513 
L 109.060826 225.249513 
z
" clip-path="url(#p410f1d39e1)" style="fill: #1f77b4; fill-opacity: 0.75; stroke: #000000; stroke-width: 0.279673; stroke-linejoin: miter"/>
   </g>
   <g id="patch_17">
    <path d="M 111.59365 318.04 
L 114.126474 318.04 
L 114.126474 223.907954 
L 111.59365 223.907954 
z
" clip-path="url(#p410f1d39e1)" style="fill: #1f77b4; fill-opacity: 0.75; stroke: #000000; stroke-width: 0.279673; stroke-linejoin: miter"/>
   </g>
   <g id="patch_18">
    <path d="M 114.126474 318.04 
L 116.659298 318.04 
L 116.659298 197.197425 
L 114.126474 197.197425 
z
" clip-path="url(#p410f1d39e1)" style="fill: #1f77b4; fill-opacity: 0.75; stroke: #000000; stroke-width: 0.279673; stroke-linejoin: miter"/>
   </g>
   <g id="patch_19">
    <path d="M 116.659298 318.04 
L 119.192121 318.04 
L 119.192121 170.669668 
L 116.659298 170.669668 
z
" clip-path="url(#p410f1d39e1)" style="fill: #1f77b4; fill-opacity: 0.75; stroke: #000000; stroke-width: 0.279673; stroke-linejoin: miter"/>
   </g>
   <g id="patch_20">
    <path d="M 119.192121 318.04 
L 121.724945 318.04 
L 121.724945 151.22256 
L 119.192121 151.22256 
z
" clip-path="url(#p410f1d39e1)" style="fill: #1f77b4; fill-opacity: 0.75; stroke: #000000; stroke-width: 0.279673; stroke-linejoin: miter"/>
   </g>
   <g id="patch_21">
    <path d="M 121.724945 318.04 
L 124.257769 318.04 
L 124.257769 118.586511 
L 121.724945 118.586511 
z
" clip-path="url(#p410f1d39e1)" style="fill: #1f77b4; fill-opacity: 0.75; stroke: #000000; stroke-width: 0.279673; stroke-linejoin: miter"/>
   </g>
   <g id="patch_22">
    <path d="M 124.257769 318.04 
L 126.790592 318.04 
L 126.790592 136.827313 
L 124.257769 136.827313 
z
" clip-path="url(#p410f1d39e1)" style="fill: #1f77b4; fill-opacity: 0.75; stroke: #000000; stroke-width: 0.279673; stroke-linejoin: miter"/>
   </g>
   <g id="patch_23">
    <path d="M 126.790592 318.04 
L 129.323416 318.04 
L 129.323416 63.282883 
L 126.790592 63.282883 
z
" clip-path="url(#p410f1d39e1)" style="fill: #1f77b4; fill-opacity: 0.75; stroke: #000000; stroke-width: 0.279673; stroke-linejoin: miter"/>
   </g>
   <g id="patch_24">
    <path d="M 129.323416 318.04 
L 131.85624 318.04 
L 131.85624 47.505868 
L 129.323416 47.505868 
z
" clip-path="url(#p410f1d39e1)" style="fill: #1f77b4; fill-opacity: 0.75; stroke: #000000; stroke-width: 0.279673; stroke-linejoin: miter"/>
   </g>
   <g id="patch_25">
    <path d="M 131.85624 318.04 
L 134.389063 318.04 
L 134.389063 25.430476 
L 131.85624 25.430476 
z
" clip-path="url(#p410f1d39e1)" style="fill: #1f77b4; fill-opacity: 0.75; stroke: #000000; stroke-width: 0.279673; stroke-linejoin: miter"/>
   </g>
   <g id="patch_26">
    <path d="M 134.389063 318.04 
L 136.921887 318.04 
L 136.921887 25.814301 
L 134.389063 25.814301 
z
" clip-path="url(#p410f1d39e1)" style="fill: #1f77b4; fill-opacity: 0.75; stroke: #000000; stroke-width: 0.279673; stroke-linejoin: miter"/>
   </g>
   <g id="patch_27">
    <path d="M 136.921887 318.04 
L 139.454711 318.04 
L 139.454711 74.055558 
L 136.921887 74.055558 
z
" clip-path="url(#p410f1d39e1)" style="fill: #1f77b4; fill-opacity: 0.75; stroke: #000000; stroke-width: 0.279673; stroke-linejoin: miter"/>
   </g>
   <g id="patch_28">
    <path d="M 139.454711 318.04 
L 141.987534 318.04 
L 141.987534 37.588574 
L 139.454711 37.588574 
z
" clip-path="url(#p410f1d39e1)" style="fill: #1f77b4; fill-opacity: 0.75; stroke: #000000; stroke-width: 0.279673; stroke-linejoin: miter"/>
   </g>
   <g id="patch_29">
    <path d="M 141.987534 318.04 
L 144.520358 318.04 
L 144.520358 37.391179 
L 141.987534 37.391179 
z
" clip-path="url(#p410f1d39e1)" style="fill: #1f77b4; fill-opacity: 0.75; stroke: #000000; stroke-width: 0.279673; stroke-linejoin: miter"/>
   </g>
   <g id="patch_30">
    <path d="M 144.520358 318.04 
L 147.053182 318.04 
L 147.053182 58.278543 
L 144.520358 58.278543 
z
" clip-path="url(#p410f1d39e1)" style="fill: #1f77b4; fill-opacity: 0.75; stroke: #000000; stroke-width: 0.279673; stroke-linejoin: miter"/>
   </g>
   <g id="patch_31">
    <path d="M 147.053182 318.04 
L 149.586006 318.04 
L 149.586006 62.32515 
L 147.053182 62.32515 
z
" clip-path="url(#p410f1d39e1)" style="fill: #1f77b4; fill-opacity: 0.75; stroke: #000000; stroke-width: 0.279673; stroke-linejoin: miter"/>
   </g>
   <g id="patch_32">
    <path d="M 149.586006 318.04 
L 152.118829 318.04 
L 152.118829 124.340223 
L 149.586006 124.340223 
z
" clip-path="url(#p410f1d39e1)" style="fill: #1f77b4; fill-opacity: 0.75; stroke: #000000; stroke-width: 0.279673; stroke-linejoin: miter"/>
   </g>
   <g id="patch_33">
    <path d="M 152.118829 318.04 
L 154.651653 318.04 
L 154.651653 80.97902 
L 152.118829 80.97902 
z
" clip-path="url(#p410f1d39e1)" style="fill: #1f77b4; fill-opacity: 0.75; stroke: #000000; stroke-width: 0.279673; stroke-linejoin: miter"/>
   </g>
   <g id="patch_34">
    <path d="M 154.651653 318.04 
L 157.184477 318.04 
L 157.184477 82.316923 
L 154.651653 82.316923 
z
" clip-path="url(#p410f1d39e1)" style="fill: #1f77b4; fill-opacity: 0.75; stroke: #000000; stroke-width: 0.279673; stroke-linejoin: miter"/>
   </g>
   <g id="patch_35">
    <path d="M 157.184477 318.04 
L 159.7173 318.04 
L 159.7173 81.637005 
L 157.184477 81.637005 
z
" clip-path="url(#p410f1d39e1)" style="fill: #1f77b4; fill-opacity: 0.75; stroke: #000000; stroke-width: 0.279673; stroke-linejoin: miter"/>
   </g>
   <g id="patch_36">
    <path d="M 159.7173 318.04 
L 162.250124 318.04 
L 162.250124 87.445549 
L 159.7173 87.445549 
z
" clip-path="url(#p410f1d39e1)" style="fill: #1f77b4; fill-opacity: 0.75; stroke: #000000; stroke-width: 0.279673; stroke-linejoin: miter"/>
   </g>
   <g id="patch_37">
    <path d="M 162.250124 318.04 
L 164.782948 318.04 
L 164.782948 128.390485 
L 162.250124 128.390485 
z
" clip-path="url(#p410f1d39e1)" style="fill: #1f77b4; fill-opacity: 0.75; stroke: #000000; stroke-width: 0.279673; stroke-linejoin: miter"/>
   </g>
   <g id="patch_38">
    <path d="M 164.782948 318.04 
L 167.315771 318.04 
L 167.315771 83.26369 
L 164.782948 83.26369 
z
" clip-path="url(#p410f1d39e1)" style="fill: #1f77b4; fill-opacity: 0.75; stroke: #000000; stroke-width: 0.279673; stroke-linejoin: miter"/>
   </g>
   <g id="patch_39">
    <path d="M 167.315771 318.04 
L 169.848595 318.04 
L 169.848595 92.124553 
L 167.315771 92.124553 
z
" clip-path="url(#p410f1d39e1)" style="fill: #1f77b4; fill-opacity: 0.75; stroke: #000000; stroke-width: 0.279673; stroke-linejoin: miter"/>
   </g>
   <g id="patch_40">
    <path d="M 169.848595 318.04 
L 172.381419 318.04 
L 172.381419 80.650028 
L 169.848595 80.650028 
z
" clip-path="url(#p410f1d39e1)" style="fill: #1f77b4; fill-opacity: 0.75; stroke: #000000; stroke-width: 0.279673; stroke-linejoin: miter"/>
   </g>
   <g id="patch_41">
    <path d="M 172.381419 318.04 
L 174.914242 318.04 
L 174.914242 98.371754 
L 172.381419 98.371754 
z
" clip-path="url(#p410f1d39e1)" style="fill: #1f77b4; fill-opacity: 0.75; stroke: #000000; stroke-width: 0.279673; stroke-linejoin: miter"/>
   </g>
   <g id="patch_42">
    <path d="M 174.914242 318.04 
L 177.447066 318.04 
L 177.447066 124.691148 
L 174.914242 124.691148 
z
" clip-path="url(#p410f1d39e1)" style="fill: #1f77b4; fill-opacity: 0.75; stroke: #000000; stroke-width: 0.279673; stroke-linejoin: miter"/>
   </g>
   <g id="patch_43">
    <path d="M 177.447066 318.04 
L 179.97989 318.04 
L 179.97989 96.273513 
L 177.447066 96.273513 
z
" clip-path="url(#p410f1d39e1)" style="fill: #1f77b4; fill-opacity: 0.75; stroke: #000000; stroke-width: 0.279673; stroke-linejoin: miter"/>
   </g>
   <g id="patch_44">
    <path d="M 179.97989 318.04 
L 182.512713 318.04 
L 182.512713 101.259576 
L 179.97989 101.259576 
z
" clip-path="url(#p410f1d39e1)" style="fill: #1f77b4; fill-opacity: 0.75; stroke: #000000; stroke-width: 0.279673; stroke-linejoin: miter"/>
   </g>
   <g id="patch_45">
    <path d="M 182.512713 318.04 
L 185.045537 318.04 
L 185.045537 102.769286 
L 182.512713 102.769286 
z
" clip-path="url(#p410f1d39e1)" style="fill: #1f77b4; fill-opacity: 0.75; stroke: #000000; stroke-width: 0.279673; stroke-linejoin: miter"/>
   </g>
   <g id="patch_46">
    <path d="M 185.045537 318.04 
L 187.578361 318.04 
L 187.578361 105.105132 
L 185.045537 105.105132 
z
" clip-path="url(#p410f1d39e1)" style="fill: #1f77b4; fill-opacity: 0.75; stroke: #000000; stroke-width: 0.279673; stroke-linejoin: miter"/>
   </g>
   <g id="patch_47">
    <path d="M 187.578361 318.04 
L 190.111185 318.04 
L 190.111185 155.854042 
L 187.578361 155.854042 
z
" clip-path="url(#p410f1d39e1)" style="fill: #1f77b4; fill-opacity: 0.75; stroke: #000000; stroke-width: 0.279673; stroke-linejoin: miter"/>
   </g>
   <g id="patch_48">
    <path d="M 190.111185 318.04 
L 192.644008 318.04 
L 192.644008 103.302985 
L 190.111185 103.302985 
z
" clip-path="url(#p410f1d39e1)" style="fill: #1f77b4; fill-opacity: 0.75; stroke: #000000; stroke-width: 0.279673; stroke-linejoin: miter"/>
   </g>
   <g id="patch_49">
    <path d="M 192.644008 318.04 
L 195.176832 318.04 
L 195.176832 105.331771 
L 192.644008 105.331771 
z
" clip-path="url(#p410f1d39e1)" style="fill: #1f77b4; fill-opacity: 0.75; stroke: #000000; stroke-width: 0.279673; stroke-linejoin: miter"/>
   </g>
   <g id="patch_50">
    <path d="M 195.176832 318.04 
L 197.709656 318.04 
L 197.709656 103.858616 
L 195.176832 103.858616 
z
" clip-path="url(#p410f1d39e1)" style="fill: #1f77b4; fill-opacity: 0.75; stroke: #000000; stroke-width: 0.279673; stroke-linejoin: miter"/>
   </g>
   <g id="patch_51">
    <path d="M 197.709656 318.04 
L 200.242479 318.04 
L 200.242479 93.385691 
L 197.709656 93.385691 
z
" clip-path="url(#p410f1d39e1)" style="fill: #1f77b4; fill-opacity: 0.75; stroke: #000000; stroke-width: 0.279673; stroke-linejoin: miter"/>
   </g>
   <g id="patch_52">
    <path d="M 200.242479 318.04 
L 202.775303 318.04 
L 202.775303 132.184865 
L 200.242479 132.184865 
z
" clip-path="url(#p410f1d39e1)" style="fill: #1f77b4; fill-opacity: 0.75; stroke: #000000; stroke-width: 0.279673; stroke-linejoin: miter"/>
   </g>
   <g id="patch_53">
    <path d="M 202.775303 318.04 
L 205.308127 318.04 
L 205.308127 86.36353 
L 202.775303 86.36353 
z
" clip-path="url(#p410f1d39e1)" style="fill: #1f77b4; fill-opacity: 0.75; stroke: #000000; stroke-width: 0.279673; stroke-linejoin: miter"/>
   </g>
   <g id="patch_54">
    <path d="M 205.308127 318.04 
L 207.84095 318.04 
L 207.84095 92.544932 
L 205.308127 92.544932 
z
" clip-path="url(#p410f1d39e1)" style="fill: #1f77b4; fill-opacity: 0.75; stroke: #000000; stroke-width: 0.279673; stroke-linejoin: miter"/>
   </g>
   <g id="patch_55">
    <path d="M 207.84095 318.04 
L 210.373774 318.04 
L 210.373774 50.960289 
L 207.84095 50.960289 
z
" clip-path="url(#p410f1d39e1)" style="fill: #1f77b4; fill-opacity: 0.75; stroke: #000000; stroke-width: 0.279673; stroke-linejoin: miter"/>
   </g>
   <g id="patch_56">
    <path d="M 210.373774 318.04 
L 212.906598 318.04 
L 212.906598 64.759694 
L 210.373774 64.759694 
z
" clip-path="url(#p410f1d39e1)" style="fill: #1f77b4; fill-opacity: 0.75; stroke: #000000; stroke-width: 0.279673; stroke-linejoin: miter"/>
   </g>
   <g id="patch_57">
    <path d="M 212.906598 318.04 
L 215.439421 318.04 
L 215.439421 112.993639 
L 212.906598 112.993639 
z
" clip-path="url(#p410f1d39e1)" style="fill: #1f77b4; fill-opacity: 0.75; stroke: #000000; stroke-width: 0.279673; stroke-linejoin: miter"/>
   </g>
   <g id="patch_58">
    <path d="M 215.439421 318.04 
L 217.972245 318.04 
L 217.972245 50.631296 
L 215.439421 50.631296 
z
" clip-path="url(#p410f1d39e1)" style="fill: #1f77b4; fill-opacity: 0.75; stroke: #000000; stroke-width: 0.279673; stroke-linejoin: miter"/>
   </g>
   <g id="patch_59">
    <path d="M 217.972245 318.04 
L 220.505069 318.04 
L 220.505069 46.730908 
L 217.972245 46.730908 
z
" clip-path="url(#p410f1d39e1)" style="fill: #1f77b4; fill-opacity: 0.75; stroke: #000000; stroke-width: 0.279673; stroke-linejoin: miter"/>
   </g>
   <g id="patch_60">
    <path d="M 220.505069 318.04 
L 223.037893 318.04 
L 223.037893 46.35805 
L 220.505069 46.35805 
z
" clip-path="url(#p410f1d39e1)" style="fill: #1f77b4; fill-opacity: 0.75; stroke: #000000; stroke-width: 0.279673; stroke-linejoin: miter"/>
   </g>
   <g id="patch_61">
    <path d="M 223.037893 318.04 
L 225.570716 318.04 
L 225.570716 46.306874 
L 223.037893 46.306874 
z
" clip-path="url(#p410f1d39e1)" style="fill: #1f77b4; fill-opacity: 0.75; stroke: #000000; stroke-width: 0.279673; stroke-linejoin: miter"/>
   </g>
   <g id="patch_62">
    <path d="M 225.570716 318.04 
L 228.10354 318.04 
L 228.10354 103.716053 
L 225.570716 103.716053 
z
" clip-path="url(#p410f1d39e1)" style="fill: #1f77b4; fill-opacity: 0.75; stroke: #000000; stroke-width: 0.279673; stroke-linejoin: miter"/>
   </g>
   <g id="patch_63">
    <path d="M 228.10354 318.04 
L 230.636364 318.04 
L 230.636364 44.142835 
L 228.10354 44.142835 
z
" clip-path="url(#p410f1d39e1)" style="fill: #1f77b4; fill-opacity: 0.75; stroke: #000000; stroke-width: 0.279673; stroke-linejoin: miter"/>
   </g>
   <g id="patch_64">
    <path d="M 230.636364 318.04 
L 233.169187 318.04 
L 233.169187 70.418363 
L 230.636364 70.418363 
z
" clip-path="url(#p410f1d39e1)" style="fill: #1f77b4; fill-opacity: 0.75; stroke: #000000; stroke-width: 0.279673; stroke-linejoin: miter"/>
   </g>
   <g id="patch_65">
    <path d="M 233.169187 318.04 
L 235.702011 318.04 
L 235.702011 64.324693 
L 233.169187 64.324693 
z
" clip-path="url(#p410f1d39e1)" style="fill: #1f77b4; fill-opacity: 0.75; stroke: #000000; stroke-width: 0.279673; stroke-linejoin: miter"/>
   </g>
   <g id="patch_66">
    <path d="M 235.702011 318.04 
L 238.234835 318.04 
L 238.234835 90.867071 
L 235.702011 90.867071 
z
" clip-path="url(#p410f1d39e1)" style="fill: #1f77b4; fill-opacity: 0.75; stroke: #000000; stroke-width: 0.279673; stroke-linejoin: miter"/>
   </g>
   <g id="patch_67">
    <path d="M 238.234835 318.04 
L 240.767658 318.04 
L 240.767658 131.830284 
L 238.234835 131.830284 
z
" clip-path="url(#p410f1d39e1)" style="fill: #1f77b4; fill-opacity: 0.75; stroke: #000000; stroke-width: 0.279673; stroke-linejoin: miter"/>
   </g>
   <g id="patch_68">
    <path d="M 240.767658 318.04 
L 243.300482 318.04 
L 243.300482 109.100562 
L 240.767658 109.100562 
z
" clip-path="url(#p410f1d39e1)" style="fill: #1f77b4; fill-opacity: 0.75; stroke: #000000; stroke-width: 0.279673; stroke-linejoin: miter"/>
   </g>
   <g id="patch_69">
    <path d="M 243.300482 318.04 
L 245.833306 318.04 
L 245.833306 125.765857 
L 243.300482 125.765857 
z
" clip-path="url(#p410f1d39e1)" style="fill: #1f77b4; fill-opacity: 0.75; stroke: #000000; stroke-width: 0.279673; stroke-linejoin: miter"/>
   </g>
   <g id="patch_70">
    <path d="M 245.833306 318.04 
L 248.366129 318.04 
L 248.366129 142.449429 
L 245.833306 142.449429 
z
" clip-path="url(#p410f1d39e1)" style="fill: #1f77b4; fill-opacity: 0.75; stroke: #000000; stroke-width: 0.279673; stroke-linejoin: miter"/>
   </g>
   <g id="patch_71">
    <path d="M 248.366129 318.04 
L 250.898953 318.04 
L 250.898953 157.813375 
L 248.366129 157.813375 
z
" clip-path="url(#p410f1d39e1)" style="fill: #1f77b4; fill-opacity: 0.75; stroke: #000000; stroke-width: 0.279673; stroke-linejoin: miter"/>
   </g>
   <g id="patch_72">
    <path d="M 250.898953 318.04 
L 253.431777 318.04 
L 253.431777 208.255226 
L 250.898953 208.255226 
z
" clip-path="url(#p410f1d39e1)" style="fill: #1f77b4; fill-opacity: 0.75; stroke: #000000; stroke-width: 0.279673; stroke-linejoin: miter"/>
   </g>
   <g id="patch_73">
    <path d="M 253.431777 318.04 
L 255.964601 318.04 
L 255.964601 188.742319 
L 253.431777 188.742319 
z
" clip-path="url(#p410f1d39e1)" style="fill: #1f77b4; fill-opacity: 0.75; stroke: #000000; stroke-width: 0.279673; stroke-linejoin: miter"/>
   </g>
   <g id="patch_74">
    <path d="M 255.964601 318.04 
L 258.497424 318.04 
L 258.497424 209.417666 
L 255.964601 209.417666 
z
" clip-path="url(#p410f1d39e1)" style="fill: #1f77b4; fill-opacity: 0.75; stroke: #000000; stroke-width: 0.279673; stroke-linejoin: miter"/>
   </g>
   <g id="patch_75">
    <path d="M 258.497424 318.04 
L 261.030248 318.04 
L 261.030248 226.12317 
L 258.497424 226.12317 
z
" clip-path="url(#p410f1d39e1)" style="fill: #1f77b4; fill-opacity: 0.75; stroke: #000000; stroke-width: 0.279673; stroke-linejoin: miter"/>
   </g>
   <g id="patch_76">
    <path d="M 261.030248 318.04 
L 263.563072 318.04 
L 263.563072 242.357119 
L 261.030248 242.357119 
z
" clip-path="url(#p410f1d39e1)" style="fill: #1f77b4; fill-opacity: 0.75; stroke: #000000; stroke-width: 0.279673; stroke-linejoin: miter"/>
   </g>
   <g id="patch_77">
    <path d="M 263.563072 318.04 
L 266.095895 318.04 
L 266.095895 268.087983 
L 263.563072 268.087983 
z
" clip-path="url(#p410f1d39e1)" style="fill: #1f77b4; fill-opacity: 0.75; stroke: #000000; stroke-width: 0.279673; stroke-linejoin: miter"/>
   </g>
   <g id="patch_78">
    <path d="M 266.095895 318.04 
L 268.628719 318.04 
L 268.628719 265.28058 
L 266.095895 265.28058 
z
" clip-path="url(#p410f1d39e1)" style="fill: #1f77b4; fill-opacity: 0.75; stroke: #000000; stroke-width: 0.279673; stroke-linejoin: miter"/>
   </g>
   <g id="patch_79">
    <path d="M 268.628719 318.04 
L 271.161543 318.04 
L 271.161543 275.384304 
L 268.628719 275.384304 
z
" clip-path="url(#p410f1d39e1)" style="fill: #1f77b4; fill-opacity: 0.75; stroke: #000000; stroke-width: 0.279673; stroke-linejoin: miter"/>
   </g>
   <g id="patch_80">
    <path d="M 271.161543 318.04 
L 273.694366 318.04 
L 273.694366 285.868196 
L 271.161543 285.868196 
z
" clip-path="url(#p410f1d39e1)" style="fill: #1f77b4; fill-opacity: 0.75; stroke: #000000; stroke-width: 0.279673; stroke-linejoin: miter"/>
   </g>
   <g id="patch_81">
    <path d="M 273.694366 318.04 
L 276.22719 318.04 
L 276.22719 292.99271 
L 273.694366 292.99271 
z
" clip-path="url(#p410f1d39e1)" style="fill: #1f77b4; fill-opacity: 0.75; stroke: #000000; stroke-width: 0.279673; stroke-linejoin: miter"/>
   </g>
   <g id="patch_82">
    <path d="M 276.22719 318.04 
L 278.760014 318.04 
L 278.760014 302.548112 
L 276.22719 302.548112 
z
" clip-path="url(#p410f1d39e1)" style="fill: #1f77b4; fill-opacity: 0.75; stroke: #000000; stroke-width: 0.279673; stroke-linejoin: miter"/>
   </g>
   <g id="patch_83">
    <path d="M 278.760014 318.04 
L 281.292837 318.04 
L 281.292837 303.012357 
L 278.760014 303.012357 
z
" clip-path="url(#p410f1d39e1)" style="fill: #1f77b4; fill-opacity: 0.75; stroke: #000000; stroke-width: 0.279673; stroke-linejoin: miter"/>
   </g>
   <g id="patch_84">
    <path d="M 281.292837 318.04 
L 283.825661 318.04 
L 283.825661 307.607284 
L 281.292837 307.607284 
z
" clip-path="url(#p410f1d39e1)" style="fill: #1f77b4; fill-opacity: 0.75; stroke: #000000; stroke-width: 0.279673; stroke-linejoin: miter"/>
   </g>
   <g id="patch_85">
    <path d="M 283.825661 318.04 
L 286.358485 318.04 
L 286.358485 310.582838 
L 283.825661 310.582838 
z
" clip-path="url(#p410f1d39e1)" style="fill: #1f77b4; fill-opacity: 0.75; stroke: #000000; stroke-width: 0.279673; stroke-linejoin: miter"/>
   </g>
   <g id="patch_86">
    <path d="M 286.358485 318.04 
L 288.891309 318.04 
L 288.891309 313.028349 
L 286.358485 313.028349 
z
" clip-path="url(#p410f1d39e1)" style="fill: #1f77b4; fill-opacity: 0.75; stroke: #000000; stroke-width: 0.279673; stroke-linejoin: miter"/>
   </g>
   <g id="patch_87">
    <path d="M 288.891309 318.04 
L 291.424132 318.04 
L 291.424132 315.126589 
L 288.891309 315.126589 
z
" clip-path="url(#p410f1d39e1)" style="fill: #1f77b4; fill-opacity: 0.75; stroke: #000000; stroke-width: 0.279673; stroke-linejoin: miter"/>
   </g>
   <g id="patch_88">
    <path d="M 291.424132 318.04 
L 293.956956 318.04 
L 293.956956 315.419027 
L 291.424132 315.419027 
z
" clip-path="url(#p410f1d39e1)" style="fill: #1f77b4; fill-opacity: 0.75; stroke: #000000; stroke-width: 0.279673; stroke-linejoin: miter"/>
   </g>
   <g id="patch_89">
    <path d="M 293.956956 318.04 
L 296.48978 318.04 
L 296.48978 316.526635 
L 293.956956 316.526635 
z
" clip-path="url(#p410f1d39e1)" style="fill: #1f77b4; fill-opacity: 0.75; stroke: #000000; stroke-width: 0.279673; stroke-linejoin: miter"/>
   </g>
   <g id="patch_90">
    <path d="M 296.48978 318.04 
L 299.022603 318.04 
L 299.022603 316.979913 
L 296.48978 316.979913 
z
" clip-path="url(#p410f1d39e1)" style="fill: #1f77b4; fill-opacity: 0.75; stroke: #000000; stroke-width: 0.279673; stroke-linejoin: miter"/>
   </g>
   <g id="patch_91">
    <path d="M 299.022603 318.04 
L 301.555427 318.04 
L 301.555427 317.319872 
L 299.022603 317.319872 
z
" clip-path="url(#p410f1d39e1)" style="fill: #1f77b4; fill-opacity: 0.75; stroke: #000000; stroke-width: 0.279673; stroke-linejoin: miter"/>
   </g>
   <g id="patch_92">
    <path d="M 301.555427 318.04 
L 304.088251 318.04 
L 304.088251 317.700041 
L 301.555427 317.700041 
z
" clip-path="url(#p410f1d39e1)" style="fill: #1f77b4; fill-opacity: 0.75; stroke: #000000; stroke-width: 0.279673; stroke-linejoin: miter"/>
   </g>
   <g id="patch_93">
    <path d="M 304.088251 318.04 
L 306.621074 318.04 
L 306.621074 317.835294 
L 304.088251 317.835294 
z
" clip-path="url(#p410f1d39e1)" style="fill: #1f77b4; fill-opacity: 0.75; stroke: #000000; stroke-width: 0.279673; stroke-linejoin: miter"/>
   </g>
   <g id="patch_94">
    <path d="M 306.621074 318.04 
L 309.153898 318.04 
L 309.153898 317.912058 
L 306.621074 317.912058 
z
" clip-path="url(#p410f1d39e1)" style="fill: #1f77b4; fill-opacity: 0.75; stroke: #000000; stroke-width: 0.279673; stroke-linejoin: miter"/>
   </g>
   <g id="patch_95">
    <path d="M 309.153898 318.04 
L 311.686722 318.04 
L 311.686722 317.977857 
L 309.153898 317.977857 
z
" clip-path="url(#p410f1d39e1)" style="fill: #1f77b4; fill-opacity: 0.75; stroke: #000000; stroke-width: 0.279673; stroke-linejoin: miter"/>
   </g>
   <g id="patch_96">
    <path d="M 311.686722 318.04 
L 314.219545 318.04 
L 314.219545 318.010756 
L 311.686722 318.010756 
z
" clip-path="url(#p410f1d39e1)" style="fill: #1f77b4; fill-opacity: 0.75; stroke: #000000; stroke-width: 0.279673; stroke-linejoin: miter"/>
   </g>
   <g id="patch_97">
    <path d="M 314.219545 318.04 
L 316.752369 318.04 
L 316.752369 318.029034 
L 314.219545 318.029034 
z
" clip-path="url(#p410f1d39e1)" style="fill: #1f77b4; fill-opacity: 0.75; stroke: #000000; stroke-width: 0.279673; stroke-linejoin: miter"/>
   </g>
   <g id="patch_98">
    <path d="M 316.752369 318.04 
L 319.285193 318.04 
L 319.285193 318.029034 
L 316.752369 318.029034 
z
" clip-path="url(#p410f1d39e1)" style="fill: #1f77b4; fill-opacity: 0.75; stroke: #000000; stroke-width: 0.279673; stroke-linejoin: miter"/>
   </g>
   <g id="patch_99">
    <path d="M 319.285193 318.04 
L 321.818017 318.04 
L 321.818017 318.036345 
L 319.285193 318.036345 
z
" clip-path="url(#p410f1d39e1)" style="fill: #1f77b4; fill-opacity: 0.75; stroke: #000000; stroke-width: 0.279673; stroke-linejoin: miter"/>
   </g>
   <g id="patch_100">
    <path d="M 321.818017 318.04 
L 324.35084 318.04 
L 324.35084 318.036345 
L 321.818017 318.036345 
z
" clip-path="url(#p410f1d39e1)" style="fill: #1f77b4; fill-opacity: 0.75; stroke: #000000; stroke-width: 0.279673; stroke-linejoin: miter"/>
   </g>
   <g id="patch_101">
    <path d="M 324.35084 318.04 
L 326.883664 318.04 
L 326.883664 318.036345 
L 324.35084 318.036345 
z
" clip-path="url(#p410f1d39e1)" style="fill: #1f77b4; fill-opacity: 0.75; stroke: #000000; stroke-width: 0.279673; stroke-linejoin: miter"/>
   </g>
   <g id="patch_102">
    <path d="M 326.883664 318.04 
L 329.416488 318.04 
L 329.416488 318.036345 
L 326.883664 318.036345 
z
" clip-path="url(#p410f1d39e1)" style="fill: #1f77b4; fill-opacity: 0.75; stroke: #000000; stroke-width: 0.279673; stroke-linejoin: miter"/>
   </g>
   <g id="matplotlib.axis_1">
    <g id="xtick_1">
     <g id="line2d_1">
      <defs>
       <path id="m0d31dc884f" d="M 0 0 
L 0 3.5 
" style="stroke: #000000; stroke-width: 0.8"/>
      </defs>
      <g>
       <use xlink:href="#m0d31dc884f" x="76.134118" y="318.04" style="stroke: #000000; stroke-width: 0.8"/>
      </g>
     </g>
     <g id="text_1">
      <!-- 0 -->
      <g transform="translate(72.952868 332.638438) scale(0.1 -0.1)">
       <defs>
        <path id="DejaVuSans-30" d="M 2034 4250 
Q 1547 4250 1301 3770 
Q 1056 3291 1056 2328 
Q 1056 1369 1301 889 
Q 1547 409 2034 409 
Q 2525 409 2770 889 
Q 3016 1369 3016 2328 
Q 3016 3291 2770 3770 
Q 2525 4250 2034 4250 
z
M 2034 4750 
Q 2819 4750 3233 4129 
Q 3647 3509 3647 2328 
Q 3647 1150 3233 529 
Q 2819 -91 2034 -91 
Q 1250 -91 836 529 
Q 422 1150 422 2328 
Q 422 3509 836 4129 
Q 1250 4750 2034 4750 
z
" transform="scale(0.015625)"/>
       </defs>
       <use xlink:href="#DejaVuSans-30"/>
      </g>
     </g>
    </g>
    <g id="xtick_2">
     <g id="line2d_2">
      <g>
       <use xlink:href="#m0d31dc884f" x="128.901279" y="318.04" style="stroke: #000000; stroke-width: 0.8"/>
      </g>
     </g>
     <g id="text_2">
      <!-- 100 -->
      <g transform="translate(119.357529 332.638438) scale(0.1 -0.1)">
       <defs>
        <path id="DejaVuSans-31" d="M 794 531 
L 1825 531 
L 1825 4091 
L 703 3866 
L 703 4441 
L 1819 4666 
L 2450 4666 
L 2450 531 
L 3481 531 
L 3481 0 
L 794 0 
L 794 531 
z
" transform="scale(0.015625)"/>
       </defs>
       <use xlink:href="#DejaVuSans-31"/>
       <use xlink:href="#DejaVuSans-30" x="63.623047"/>
       <use xlink:href="#DejaVuSans-30" x="127.246094"/>
      </g>
     </g>
    </g>
    <g id="xtick_3">
     <g id="line2d_3">
      <g>
       <use xlink:href="#m0d31dc884f" x="181.668439" y="318.04" style="stroke: #000000; stroke-width: 0.8"/>
      </g>
     </g>
     <g id="text_3">
      <!-- 200 -->
      <g transform="translate(172.124689 332.638438) scale(0.1 -0.1)">
       <defs>
        <path id="DejaVuSans-32" d="M 1228 531 
L 3431 531 
L 3431 0 
L 469 0 
L 469 531 
Q 828 903 1448 1529 
Q 2069 2156 2228 2338 
Q 2531 2678 2651 2914 
Q 2772 3150 2772 3378 
Q 2772 3750 2511 3984 
Q 2250 4219 1831 4219 
Q 1534 4219 1204 4116 
Q 875 4013 500 3803 
L 500 4441 
Q 881 4594 1212 4672 
Q 1544 4750 1819 4750 
Q 2544 4750 2975 4387 
Q 3406 4025 3406 3419 
Q 3406 3131 3298 2873 
Q 3191 2616 2906 2266 
Q 2828 2175 2409 1742 
Q 1991 1309 1228 531 
z
" transform="scale(0.015625)"/>
       </defs>
       <use xlink:href="#DejaVuSans-32"/>
       <use xlink:href="#DejaVuSans-30" x="63.623047"/>
       <use xlink:href="#DejaVuSans-30" x="127.246094"/>
      </g>
     </g>
    </g>
    <g id="xtick_4">
     <g id="line2d_4">
      <g>
       <use xlink:href="#m0d31dc884f" x="234.435599" y="318.04" style="stroke: #000000; stroke-width: 0.8"/>
      </g>
     </g>
     <g id="text_4">
      <!-- 300 -->
      <g transform="translate(224.891849 332.638438) scale(0.1 -0.1)">
       <defs>
        <path id="DejaVuSans-33" d="M 2597 2516 
Q 3050 2419 3304 2112 
Q 3559 1806 3559 1356 
Q 3559 666 3084 287 
Q 2609 -91 1734 -91 
Q 1441 -91 1130 -33 
Q 819 25 488 141 
L 488 750 
Q 750 597 1062 519 
Q 1375 441 1716 441 
Q 2309 441 2620 675 
Q 2931 909 2931 1356 
Q 2931 1769 2642 2001 
Q 2353 2234 1838 2234 
L 1294 2234 
L 1294 2753 
L 1863 2753 
Q 2328 2753 2575 2939 
Q 2822 3125 2822 3475 
Q 2822 3834 2567 4026 
Q 2313 4219 1838 4219 
Q 1578 4219 1281 4162 
Q 984 4106 628 3988 
L 628 4550 
Q 988 4650 1302 4700 
Q 1616 4750 1894 4750 
Q 2613 4750 3031 4423 
Q 3450 4097 3450 3541 
Q 3450 3153 3228 2886 
Q 3006 2619 2597 2516 
z
" transform="scale(0.015625)"/>
       </defs>
       <use xlink:href="#DejaVuSans-33"/>
       <use xlink:href="#DejaVuSans-30" x="63.623047"/>
       <use xlink:href="#DejaVuSans-30" x="127.246094"/>
      </g>
     </g>
    </g>
    <g id="xtick_5">
     <g id="line2d_5">
      <g>
       <use xlink:href="#m0d31dc884f" x="287.202759" y="318.04" style="stroke: #000000; stroke-width: 0.8"/>
      </g>
     </g>
     <g id="text_5">
      <!-- 400 -->
      <g transform="translate(277.659009 332.638438) scale(0.1 -0.1)">
       <defs>
        <path id="DejaVuSans-34" d="M 2419 4116 
L 825 1625 
L 2419 1625 
L 2419 4116 
z
M 2253 4666 
L 3047 4666 
L 3047 1625 
L 3713 1625 
L 3713 1100 
L 3047 1100 
L 3047 0 
L 2419 0 
L 2419 1100 
L 313 1100 
L 313 1709 
L 2253 4666 
z
" transform="scale(0.015625)"/>
       </defs>
       <use xlink:href="#DejaVuSans-34"/>
       <use xlink:href="#DejaVuSans-30" x="63.623047"/>
       <use xlink:href="#DejaVuSans-30" x="127.246094"/>
      </g>
     </g>
    </g>
    <g id="xtick_6">
     <g id="line2d_6">
      <g>
       <use xlink:href="#m0d31dc884f" x="339.96992" y="318.04" style="stroke: #000000; stroke-width: 0.8"/>
      </g>
     </g>
     <g id="text_6">
      <!-- 500 -->
      <g transform="translate(330.42617 332.638438) scale(0.1 -0.1)">
       <defs>
        <path id="DejaVuSans-35" d="M 691 4666 
L 3169 4666 
L 3169 4134 
L 1269 4134 
L 1269 2991 
Q 1406 3038 1543 3061 
Q 1681 3084 1819 3084 
Q 2600 3084 3056 2656 
Q 3513 2228 3513 1497 
Q 3513 744 3044 326 
Q 2575 -91 1722 -91 
Q 1428 -91 1123 -41 
Q 819 9 494 109 
L 494 744 
Q 775 591 1075 516 
Q 1375 441 1709 441 
Q 2250 441 2565 725 
Q 2881 1009 2881 1497 
Q 2881 1984 2565 2268 
Q 2250 2553 1709 2553 
Q 1456 2553 1204 2497 
Q 953 2441 691 2322 
L 691 4666 
z
" transform="scale(0.015625)"/>
       </defs>
       <use xlink:href="#DejaVuSans-35"/>
       <use xlink:href="#DejaVuSans-30" x="63.623047"/>
       <use xlink:href="#DejaVuSans-30" x="127.246094"/>
      </g>
     </g>
    </g>
    <g id="text_7">
     <!-- score -->
     <g transform="translate(189.342491 346.316563) scale(0.1 -0.1)">
      <defs>
       <path id="DejaVuSans-73" d="M 2834 3397 
L 2834 2853 
Q 2591 2978 2328 3040 
Q 2066 3103 1784 3103 
Q 1356 3103 1142 2972 
Q 928 2841 928 2578 
Q 928 2378 1081 2264 
Q 1234 2150 1697 2047 
L 1894 2003 
Q 2506 1872 2764 1633 
Q 3022 1394 3022 966 
Q 3022 478 2636 193 
Q 2250 -91 1575 -91 
Q 1294 -91 989 -36 
Q 684 19 347 128 
L 347 722 
Q 666 556 975 473 
Q 1284 391 1588 391 
Q 1994 391 2212 530 
Q 2431 669 2431 922 
Q 2431 1156 2273 1281 
Q 2116 1406 1581 1522 
L 1381 1569 
Q 847 1681 609 1914 
Q 372 2147 372 2553 
Q 372 3047 722 3315 
Q 1072 3584 1716 3584 
Q 2034 3584 2315 3537 
Q 2597 3491 2834 3397 
z
" transform="scale(0.015625)"/>
       <path id="DejaVuSans-63" d="M 3122 3366 
L 3122 2828 
Q 2878 2963 2633 3030 
Q 2388 3097 2138 3097 
Q 1578 3097 1268 2742 
Q 959 2388 959 1747 
Q 959 1106 1268 751 
Q 1578 397 2138 397 
Q 2388 397 2633 464 
Q 2878 531 3122 666 
L 3122 134 
Q 2881 22 2623 -34 
Q 2366 -91 2075 -91 
Q 1284 -91 818 406 
Q 353 903 353 1747 
Q 353 2603 823 3093 
Q 1294 3584 2113 3584 
Q 2378 3584 2631 3529 
Q 2884 3475 3122 3366 
z
" transform="scale(0.015625)"/>
       <path id="DejaVuSans-6f" d="M 1959 3097 
Q 1497 3097 1228 2736 
Q 959 2375 959 1747 
Q 959 1119 1226 758 
Q 1494 397 1959 397 
Q 2419 397 2687 759 
Q 2956 1122 2956 1747 
Q 2956 2369 2687 2733 
Q 2419 3097 1959 3097 
z
M 1959 3584 
Q 2709 3584 3137 3096 
Q 3566 2609 3566 1747 
Q 3566 888 3137 398 
Q 2709 -91 1959 -91 
Q 1206 -91 779 398 
Q 353 888 353 1747 
Q 353 2609 779 3096 
Q 1206 3584 1959 3584 
z
" transform="scale(0.015625)"/>
       <path id="DejaVuSans-72" d="M 2631 2963 
Q 2534 3019 2420 3045 
Q 2306 3072 2169 3072 
Q 1681 3072 1420 2755 
Q 1159 2438 1159 1844 
L 1159 0 
L 581 0 
L 581 3500 
L 1159 3500 
L 1159 2956 
Q 1341 3275 1631 3429 
Q 1922 3584 2338 3584 
Q 2397 3584 2469 3576 
Q 2541 3569 2628 3553 
L 2631 2963 
z
" transform="scale(0.015625)"/>
       <path id="DejaVuSans-65" d="M 3597 1894 
L 3597 1613 
L 953 1613 
Q 991 1019 1311 708 
Q 1631 397 2203 397 
Q 2534 397 2845 478 
Q 3156 559 3463 722 
L 3463 178 
Q 3153 47 2828 -22 
Q 2503 -91 2169 -91 
Q 1331 -91 842 396 
Q 353 884 353 1716 
Q 353 2575 817 3079 
Q 1281 3584 2069 3584 
Q 2775 3584 3186 3129 
Q 3597 2675 3597 1894 
z
M 3022 2063 
Q 3016 2534 2758 2815 
Q 2500 3097 2075 3097 
Q 1594 3097 1305 2825 
Q 1016 2553 972 2059 
L 3022 2063 
z
" transform="scale(0.015625)"/>
      </defs>
      <use xlink:href="#DejaVuSans-73"/>
      <use xlink:href="#DejaVuSans-63" x="52.099609"/>
      <use xlink:href="#DejaVuSans-6f" x="107.080078"/>
      <use xlink:href="#DejaVuSans-72" x="168.261719"/>
      <use xlink:href="#DejaVuSans-65" x="207.125"/>
     </g>
    </g>
   </g>
   <g id="matplotlib.axis_2">
    <g id="ytick_1">
     <g id="line2d_7">
      <defs>
       <path id="m6729975d13" d="M 0 0 
L -3.5 0 
" style="stroke: #000000; stroke-width: 0.8"/>
      </defs>
      <g>
       <use xlink:href="#m6729975d13" x="63.47" y="318.04" style="stroke: #000000; stroke-width: 0.8"/>
      </g>
     </g>
     <g id="text_8">
      <!-- 0 -->
      <g transform="translate(50.1075 321.839219) scale(0.1 -0.1)">
       <use xlink:href="#DejaVuSans-30"/>
      </g>
     </g>
    </g>
    <g id="ytick_2">
     <g id="line2d_8">
      <g>
       <use xlink:href="#m6729975d13" x="63.47" y="281.485285" style="stroke: #000000; stroke-width: 0.8"/>
      </g>
     </g>
     <g id="text_9">
      <!-- 10000 -->
      <g transform="translate(24.6575 285.284504) scale(0.1 -0.1)">
       <use xlink:href="#DejaVuSans-31"/>
       <use xlink:href="#DejaVuSans-30" x="63.623047"/>
       <use xlink:href="#DejaVuSans-30" x="127.246094"/>
       <use xlink:href="#DejaVuSans-30" x="190.869141"/>
       <use xlink:href="#DejaVuSans-30" x="254.492188"/>
      </g>
     </g>
    </g>
    <g id="ytick_3">
     <g id="line2d_9">
      <g>
       <use xlink:href="#m6729975d13" x="63.47" y="244.930571" style="stroke: #000000; stroke-width: 0.8"/>
      </g>
     </g>
     <g id="text_10">
      <!-- 20000 -->
      <g transform="translate(24.6575 248.72979) scale(0.1 -0.1)">
       <use xlink:href="#DejaVuSans-32"/>
       <use xlink:href="#DejaVuSans-30" x="63.623047"/>
       <use xlink:href="#DejaVuSans-30" x="127.246094"/>
       <use xlink:href="#DejaVuSans-30" x="190.869141"/>
       <use xlink:href="#DejaVuSans-30" x="254.492188"/>
      </g>
     </g>
    </g>
    <g id="ytick_4">
     <g id="line2d_10">
      <g>
       <use xlink:href="#m6729975d13" x="63.47" y="208.375856" style="stroke: #000000; stroke-width: 0.8"/>
      </g>
     </g>
     <g id="text_11">
      <!-- 30000 -->
      <g transform="translate(24.6575 212.175075) scale(0.1 -0.1)">
       <use xlink:href="#DejaVuSans-33"/>
       <use xlink:href="#DejaVuSans-30" x="63.623047"/>
       <use xlink:href="#DejaVuSans-30" x="127.246094"/>
       <use xlink:href="#DejaVuSans-30" x="190.869141"/>
       <use xlink:href="#DejaVuSans-30" x="254.492188"/>
      </g>
     </g>
    </g>
    <g id="ytick_5">
     <g id="line2d_11">
      <g>
       <use xlink:href="#m6729975d13" x="63.47" y="171.821142" style="stroke: #000000; stroke-width: 0.8"/>
      </g>
     </g>
     <g id="text_12">
      <!-- 40000 -->
      <g transform="translate(24.6575 175.62036) scale(0.1 -0.1)">
       <use xlink:href="#DejaVuSans-34"/>
       <use xlink:href="#DejaVuSans-30" x="63.623047"/>
       <use xlink:href="#DejaVuSans-30" x="127.246094"/>
       <use xlink:href="#DejaVuSans-30" x="190.869141"/>
       <use xlink:href="#DejaVuSans-30" x="254.492188"/>
      </g>
     </g>
    </g>
    <g id="ytick_6">
     <g id="line2d_12">
      <g>
       <use xlink:href="#m6729975d13" x="63.47" y="135.266427" style="stroke: #000000; stroke-width: 0.8"/>
      </g>
     </g>
     <g id="text_13">
      <!-- 50000 -->
      <g transform="translate(24.6575 139.065646) scale(0.1 -0.1)">
       <use xlink:href="#DejaVuSans-35"/>
       <use xlink:href="#DejaVuSans-30" x="63.623047"/>
       <use xlink:href="#DejaVuSans-30" x="127.246094"/>
       <use xlink:href="#DejaVuSans-30" x="190.869141"/>
       <use xlink:href="#DejaVuSans-30" x="254.492188"/>
      </g>
     </g>
    </g>
    <g id="ytick_7">
     <g id="line2d_13">
      <g>
       <use xlink:href="#m6729975d13" x="63.47" y="98.711713" style="stroke: #000000; stroke-width: 0.8"/>
      </g>
     </g>
     <g id="text_14">
      <!-- 60000 -->
      <g transform="translate(24.6575 102.510931) scale(0.1 -0.1)">
       <defs>
        <path id="DejaVuSans-36" d="M 2113 2584 
Q 1688 2584 1439 2293 
Q 1191 2003 1191 1497 
Q 1191 994 1439 701 
Q 1688 409 2113 409 
Q 2538 409 2786 701 
Q 3034 994 3034 1497 
Q 3034 2003 2786 2293 
Q 2538 2584 2113 2584 
z
M 3366 4563 
L 3366 3988 
Q 3128 4100 2886 4159 
Q 2644 4219 2406 4219 
Q 1781 4219 1451 3797 
Q 1122 3375 1075 2522 
Q 1259 2794 1537 2939 
Q 1816 3084 2150 3084 
Q 2853 3084 3261 2657 
Q 3669 2231 3669 1497 
Q 3669 778 3244 343 
Q 2819 -91 2113 -91 
Q 1303 -91 875 529 
Q 447 1150 447 2328 
Q 447 3434 972 4092 
Q 1497 4750 2381 4750 
Q 2619 4750 2861 4703 
Q 3103 4656 3366 4563 
z
" transform="scale(0.015625)"/>
       </defs>
       <use xlink:href="#DejaVuSans-36"/>
       <use xlink:href="#DejaVuSans-30" x="63.623047"/>
       <use xlink:href="#DejaVuSans-30" x="127.246094"/>
       <use xlink:href="#DejaVuSans-30" x="190.869141"/>
       <use xlink:href="#DejaVuSans-30" x="254.492188"/>
      </g>
     </g>
    </g>
    <g id="ytick_8">
     <g id="line2d_14">
      <g>
       <use xlink:href="#m6729975d13" x="63.47" y="62.156998" style="stroke: #000000; stroke-width: 0.8"/>
      </g>
     </g>
     <g id="text_15">
      <!-- 70000 -->
      <g transform="translate(24.6575 65.956217) scale(0.1 -0.1)">
       <defs>
        <path id="DejaVuSans-37" d="M 525 4666 
L 3525 4666 
L 3525 4397 
L 1831 0 
L 1172 0 
L 2766 4134 
L 525 4134 
L 525 4666 
z
" transform="scale(0.015625)"/>
       </defs>
       <use xlink:href="#DejaVuSans-37"/>
       <use xlink:href="#DejaVuSans-30" x="63.623047"/>
       <use xlink:href="#DejaVuSans-30" x="127.246094"/>
       <use xlink:href="#DejaVuSans-30" x="190.869141"/>
       <use xlink:href="#DejaVuSans-30" x="254.492188"/>
      </g>
     </g>
    </g>
    <g id="ytick_9">
     <g id="line2d_15">
      <g>
       <use xlink:href="#m6729975d13" x="63.47" y="25.602283" style="stroke: #000000; stroke-width: 0.8"/>
      </g>
     </g>
     <g id="text_16">
      <!-- 80000 -->
      <g transform="translate(24.6575 29.401502) scale(0.1 -0.1)">
       <defs>
        <path id="DejaVuSans-38" d="M 2034 2216 
Q 1584 2216 1326 1975 
Q 1069 1734 1069 1313 
Q 1069 891 1326 650 
Q 1584 409 2034 409 
Q 2484 409 2743 651 
Q 3003 894 3003 1313 
Q 3003 1734 2745 1975 
Q 2488 2216 2034 2216 
z
M 1403 2484 
Q 997 2584 770 2862 
Q 544 3141 544 3541 
Q 544 4100 942 4425 
Q 1341 4750 2034 4750 
Q 2731 4750 3128 4425 
Q 3525 4100 3525 3541 
Q 3525 3141 3298 2862 
Q 3072 2584 2669 2484 
Q 3125 2378 3379 2068 
Q 3634 1759 3634 1313 
Q 3634 634 3220 271 
Q 2806 -91 2034 -91 
Q 1263 -91 848 271 
Q 434 634 434 1313 
Q 434 1759 690 2068 
Q 947 2378 1403 2484 
z
M 1172 3481 
Q 1172 3119 1398 2916 
Q 1625 2713 2034 2713 
Q 2441 2713 2670 2916 
Q 2900 3119 2900 3481 
Q 2900 3844 2670 4047 
Q 2441 4250 2034 4250 
Q 1625 4250 1398 4047 
Q 1172 3844 1172 3481 
z
" transform="scale(0.015625)"/>
       </defs>
       <use xlink:href="#DejaVuSans-38"/>
       <use xlink:href="#DejaVuSans-30" x="63.623047"/>
       <use xlink:href="#DejaVuSans-30" x="127.246094"/>
       <use xlink:href="#DejaVuSans-30" x="190.869141"/>
       <use xlink:href="#DejaVuSans-30" x="254.492188"/>
      </g>
     </g>
    </g>
    <g id="text_17">
     <!-- Count -->
     <g transform="translate(18.577812 179.268438) rotate(-90) scale(0.1 -0.1)">
      <defs>
       <path id="DejaVuSans-43" d="M 4122 4306 
L 4122 3641 
Q 3803 3938 3442 4084 
Q 3081 4231 2675 4231 
Q 1875 4231 1450 3742 
Q 1025 3253 1025 2328 
Q 1025 1406 1450 917 
Q 1875 428 2675 428 
Q 3081 428 3442 575 
Q 3803 722 4122 1019 
L 4122 359 
Q 3791 134 3420 21 
Q 3050 -91 2638 -91 
Q 1578 -91 968 557 
Q 359 1206 359 2328 
Q 359 3453 968 4101 
Q 1578 4750 2638 4750 
Q 3056 4750 3426 4639 
Q 3797 4528 4122 4306 
z
" transform="scale(0.015625)"/>
       <path id="DejaVuSans-75" d="M 544 1381 
L 544 3500 
L 1119 3500 
L 1119 1403 
Q 1119 906 1312 657 
Q 1506 409 1894 409 
Q 2359 409 2629 706 
Q 2900 1003 2900 1516 
L 2900 3500 
L 3475 3500 
L 3475 0 
L 2900 0 
L 2900 538 
Q 2691 219 2414 64 
Q 2138 -91 1772 -91 
Q 1169 -91 856 284 
Q 544 659 544 1381 
z
M 1991 3584 
L 1991 3584 
z
" transform="scale(0.015625)"/>
       <path id="DejaVuSans-6e" d="M 3513 2113 
L 3513 0 
L 2938 0 
L 2938 2094 
Q 2938 2591 2744 2837 
Q 2550 3084 2163 3084 
Q 1697 3084 1428 2787 
Q 1159 2491 1159 1978 
L 1159 0 
L 581 0 
L 581 3500 
L 1159 3500 
L 1159 2956 
Q 1366 3272 1645 3428 
Q 1925 3584 2291 3584 
Q 2894 3584 3203 3211 
Q 3513 2838 3513 2113 
z
" transform="scale(0.015625)"/>
       <path id="DejaVuSans-74" d="M 1172 4494 
L 1172 3500 
L 2356 3500 
L 2356 3053 
L 1172 3053 
L 1172 1153 
Q 1172 725 1289 603 
Q 1406 481 1766 481 
L 2356 481 
L 2356 0 
L 1766 0 
Q 1100 0 847 248 
Q 594 497 594 1153 
L 594 3053 
L 172 3053 
L 172 3500 
L 594 3500 
L 594 4494 
L 1172 4494 
z
" transform="scale(0.015625)"/>
      </defs>
      <use xlink:href="#DejaVuSans-43"/>
      <use xlink:href="#DejaVuSans-6f" x="69.824219"/>
      <use xlink:href="#DejaVuSans-75" x="131.005859"/>
      <use xlink:href="#DejaVuSans-6e" x="194.384766"/>
      <use xlink:href="#DejaVuSans-74" x="257.763672"/>
     </g>
    </g>
   </g>
   <g id="patch_103">
    <path d="M 63.47 318.04 
L 63.47 10.8 
" style="fill: none; stroke: #000000; stroke-width: 0.8; stroke-linejoin: miter; stroke-linecap: square"/>
   </g>
   <g id="patch_104">
    <path d="M 63.47 318.04 
L 342.080606 318.04 
" style="fill: none; stroke: #000000; stroke-width: 0.8; stroke-linejoin: miter; stroke-linecap: square"/>
   </g>
  </g>
 </g>
 <defs>
  <clipPath id="p410f1d39e1">
   <rect x="63.47" y="10.8" width="278.610606" height="307.24"/>
  </clipPath>
 </defs>
</svg>
